<svg xmlns="http://www.w3.org/2000/svg" xmlns:xlink="http://www.w3.org/1999/xlink" width="265.867" height="258.824" viewBox="0 0 265.867 258.824"><defs><style>.a{fill:#54bd7e;}.b,.f{fill:none;}.b{stroke:#54bd7e;stroke-width:9px;}.c{fill:#f6f6f6;}.d{opacity:0.76;fill:url(#a);}.e{stroke:none;}</style><linearGradient id="a" x1="0.216" y1="0.515" x2="0.808" y2="0.221" gradientUnits="objectBoundingBox"><stop offset="0" stop-color="#fff" stop-opacity="0"/><stop offset="1" stop-color="#f6f6f6"/></linearGradient></defs><g transform="translate(-378.728 -5748.601)"><g transform="translate(297.254 5677.241)"><path class="a" d="M183.19,161.9a27.25,27.25,0,0,0-3.092-9.053c-.75,3.341-1.709,7.425-3.487,10.634" transform="translate(48.049)"/><path class="a" d="M186.334,181.39c8.625-6.762,12.8-16.551,11.175-25.937l-6.927,1.665c-3.03,5.456-8.435,10.875-19.321,16.73" transform="translate(33.821 6.938)"/><path class="a" d="M175.955,180.892c10.553-4.054,20.913-8.548,25.487-12.727L186.436,160.6c-2.126,1.145-4.457,2.305-7.015,3.484a131.813,131.813,0,0,0-14.085,7.553" transform="translate(18.065 20.62)"/><path class="a" d="M159.28,186.717c5.021-4.691,18.373-8.475,32.059-13.777l-10.462-9.207c-19.53,11.091-21.6,22.984-21.6,22.984" transform="translate(1.96 28.957)"/><path class="a" d="M174.875,171.909c7.948-7,9.8-12.734,11.571-19.065,0,0-3.542,2.543-12.442,6.122" transform="translate(41.116)"/><path class="a" d="M168.877,160.506c-16.932,13.605-7.959,34.558-7.959,34.558s.838-8.757,10.978-17.18" transform="translate(0 20.376)"/><path class="a" d="M168.458,180.5c1.46-.736,2.1-1.145,3.714-1.888a91.367,91.367,0,0,0,18.644-10.941l-.849-13.082c-7.4,3.3-14.97,5.793-22.208,9.1" transform="translate(24.508 4.643)"/><path class="a" d="M164.542,186.175c4.15-3.663,11.26-8.014,19.643-12.229l-.79-16.774c-3.678,1.53-8.5,3.945-10.766,5.039-4.45,2.152-8.31,4.248-11.047,6.7" transform="translate(8.082 11.507)"/></g><g transform="matrix(-0.799, 0.602, -0.602, -0.799, 4398.512, 10237.776)"><g class="b" transform="translate(406 5766)"><circle class="e" cx="80.5" cy="80.5" r="80.5"/><circle class="f" cx="80.5" cy="80.5" r="76"/></g><rect class="c" width="13" height="36" transform="matrix(0.996, 0.087, -0.087, 0.996, 480.594, 5906.502)"/><path class="b" d="M2760.029,5919.178l-14.392,21.453,19.737,18.821" transform="translate(-2257 -19.999)"/><g transform="translate(503.604 5789.055) rotate(-172)"><rect class="c" width="13" height="36" transform="matrix(0.996, 0.087, -0.087, 0.996, 3.435, -0.095)"/><path class="b" d="M18.983-5.443,4.591,16.009,24.327,34.83" transform="translate(6.888 -1.975)"/></g></g><rect class="d" width="200.109" height="238.76" transform="matrix(0.105, 0.995, -0.995, 0.105, 623.678, 5783.455)"/></g></svg>