<svg xmlns="http://www.w3.org/2000/svg" xmlns:xlink="http://www.w3.org/1999/xlink" width="245.354" height="209" viewBox="0 0 245.354 209"><defs><style>.a{fill:none;stroke:#54bd7e;stroke-miterlimit:10;stroke-width:9px;}.b{fill:url(#a);}</style><linearGradient id="a" x1="0.316" y1="0.433" x2="0.709" y2="0.915" gradientUnits="objectBoundingBox"><stop offset="0" stop-color="#fff" stop-opacity="0"/><stop offset="1" stop-color="#f6f6f6"/></linearGradient></defs><g transform="translate(-409.646 -6362)"><g transform="translate(164.129 5739.54)"><path class="a" d="M436.957,664.555l-67.425.041a35.354,35.354,0,0,0-25.924,9.578l-26.159,24.638a9.239,9.239,0,0,0-.126,13.331h0a11.494,11.494,0,0,0,15.853.212l8.635-8.007a17.157,17.157,0,0,1,20.817-1.931l42.194,26.609a9.121,9.121,0,0,1,2.809,12.645h0a8.737,8.737,0,0,1-12.017,2.664l-34.028-21.49,23.584,15.07a8.543,8.543,0,0,1,2.614,11.775l-.228.359a8.55,8.55,0,0,1-11.6,2.763l-23.6-14.073,13.692,8.464a8.561,8.561,0,0,1,2.67,11.957h0a8.677,8.677,0,0,1-11.741,2.7l-13.722-8.25,6.531,4a8.575,8.575,0,0,1,2.746,11.938l-.036.056a9.047,9.047,0,0,1-12.19,2.928l-4.613-2.7"/><rect class="a" width="16.997" height="29.81" rx="8" transform="matrix(0.817, 0.576, -0.576, 0.817, 318.533, 736.987)"/><rect class="a" width="14.277" height="19.271" rx="7.138" transform="translate(328.921 752.883) rotate(35.169)"/><rect class="a" width="14.997" height="25.741" rx="7.499" transform="matrix(0.817, 0.576, -0.576, 0.817, 303.91, 731.302)"/><rect class="a" width="14.997" height="19.271" rx="7.499" transform="translate(287.796 727.422) rotate(35.169)"/><path class="a" d="M283.709,733.393l-2.471-4.969A9.2,9.2,0,0,0,273,723.319H249.475"/><path class="a" d="M245.517,661.46h72.672a41.33,41.33,0,0,1,18.324,4.284l10.846,5.365"/><path class="a" d="M401.641,727.02l4.015-4.564a18.112,18.112,0,0,1,13.6-6.149h17.7"/></g><rect class="b" width="213" height="209" transform="translate(442 6362)"/></g></svg>