<svg xmlns="http://www.w3.org/2000/svg" xmlns:xlink="http://www.w3.org/1999/xlink" width="183.735" height="230.567" viewBox="0 0 183.735 230.567"><defs><style>.a,.b,.c,.d{fill:none;stroke-miterlimit:10;}.b,.c,.d{stroke:#54bd7e;}.b{stroke-width:8px;}.c{stroke-width:7px;}.d{stroke-width:6px;}.e,.f{fill:#54bd7e;font-family:SegoeUI-Semibold, Segoe UI;font-weight:600;}.e{font-size:40px;}.f{font-size:18px;}.g{fill:url(#a);}.h,.i{stroke:none;}.i{fill:#54bd7e;}</style><linearGradient id="a" x1="0.232" y1="0.564" x2="0.721" y2="0.261" gradientUnits="objectBoundingBox"><stop offset="0" stop-color="#fff" stop-opacity="0"/><stop offset="1" stop-color="#f6f6f6"/></linearGradient></defs><g transform="translate(-409.714 -6070.051)"><g transform="translate(-25.044 5471.36)"><g class="a" transform="translate(-1.212 -5.579)"><path class="h" d="M503.017,646.82c16.162-17.635,56.8-6.348,58.906,30.351,2.045,35.664-9.812,102.15-39.9,100-15.17-1.086-23.059-14.789-19.453-38.872C509.791,690.055,483.335,668.3,503.017,646.82Z"/><path class="i" d="M 523.282958984375 650.6534423828125 C 518.445556640625 650.6534423828125 514.3901977539063 652.1715698242188 511.8640747070313 654.9278564453125 C 505.8953247070313 661.4411010742188 506.860595703125 667.2047729492188 510.5302124023438 682.9122314453125 C 513.7356567382813 696.6327514648438 518.1256103515625 715.4235229492188 514.4344482421875 740.0728759765625 C 512.2433471679688 754.703369140625 515.4591674804688 760.59326171875 516.9435424804688 762.4464721679688 C 517.8640747070313 763.5957641601563 519.370361328125 764.9472045898438 523.438720703125 765.21875 C 524.3165283203125 765.21875 526.98779296875 765.21875 530.7350463867188 761.2505493164063 C 544.0626220703125 747.136962890625 551.5545654296875 705.9742431640625 549.9426879882813 677.8587036132813 C 548.7984619140625 657.8985595703125 533.3724975585938 650.6534423828125 523.282958984375 650.6534423828125 M 523.282958984375 638.6534423828125 C 540.7145385742188 638.6534423828125 560.472900390625 651.8758544921875 561.9230346679688 677.1719360351563 C 563.9675903320313 712.8359375 552.1069946289063 779.3212890625 522.0193481445313 777.1676635742188 C 506.8494873046875 776.0811767578125 498.9600219726563 762.37890625 502.5667724609375 738.2955932617188 C 509.79052734375 690.0554809570313 483.3348388671875 668.2982177734375 503.01708984375 646.8204956054688 C 508.0390625 641.3406982421875 515.4246215820313 638.6534423828125 523.282958984375 638.6534423828125 Z"/></g><ellipse class="b" cx="10.179" cy="11.86" rx="10.179" ry="11.86" transform="translate(487.771 602.691)"/><ellipse class="c" cx="5.876" cy="6.846" rx="5.876" ry="6.846" transform="translate(516.426 606.665)"/><ellipse class="d" cx="4.983" cy="5.806" rx="4.983" ry="5.806" transform="translate(534.019 613.289)"/><ellipse class="d" cx="5.456" cy="4.683" rx="5.456" ry="4.683" transform="translate(547.744 635.276) rotate(-83.899)"/><ellipse class="d" cx="3.903" cy="4.548" rx="3.903" ry="4.548" transform="translate(557.672 640.854)"/></g><g transform="translate(312 -40)"><text class="e" transform="translate(106 6166)"><tspan x="0" y="43">co</tspan></text><text class="f" transform="translate(147 6202)"><tspan x="0" y="19">2</tspan></text></g><rect class="g" width="152.109" height="168.76" transform="matrix(0.105, 0.995, -0.995, 0.105, 577.549, 6131.702)"/></g></svg>