<svg xmlns="http://www.w3.org/2000/svg" xmlns:xlink="http://www.w3.org/1999/xlink" width="812" height="692" viewBox="0 0 812 692"><defs><style>.a,.d,.e,.g{fill:#fff;}.b,.h{fill:#707070;}.b,.g,.h{font-size:26px;}.b,.d,.h{font-family:SegoeUI, Segoe UI;}.b{opacity:0.5;}.c{font-family:NotoSansGeorgian-Regular, Noto Sans Georgian;}.d{font-size:30px;opacity:0.8;}.e{font-size:60px;font-family:SegoeUI-Bold, Segoe UI;font-weight:700;}.f{fill:url(#a);}.g{font-family:SegoeUI-Semibold, Segoe UI;font-weight:600;}.h{opacity:0.57;}.i{fill:#54bd7e;}</style><linearGradient id="a" x1="0.117" y1="0.331" x2="1.139" y2="0.708" gradientUnits="objectBoundingBox"><stop offset="0" stop-color="#3689c9"/><stop offset="1" stop-color="#98d0fd"/></linearGradient></defs><g transform="translate(-692 -7208)"><rect class="a" width="398" height="79" rx="10" transform="translate(692 7460)"/><rect class="a" width="398" height="79" rx="10" transform="translate(1106 7460)"/><text class="b" transform="translate(728 7480)"><tspan x="0" y="28">Name</tspan></text><text class="b" transform="translate(1139 7480)"><tspan x="0" y="28">Email</tspan><tspan class="c" y="28"> </tspan><tspan y="28">Address</tspan></text><text class="d" transform="translate(692 7386)"><tspan x="0" y="32">Reach</tspan><tspan class="c" y="32"> </tspan><tspan y="32">out</tspan><tspan class="c" y="32"> </tspan><tspan y="32">to</tspan><tspan class="c" y="32"> </tspan><tspan y="32">learn</tspan><tspan class="c" y="32"> </tspan><tspan y="32">more</tspan><tspan class="c" y="32"> </tspan></text><text class="e" transform="translate(692 7208)"><tspan x="0" y="65">Are you ready to </tspan><tspan x="0" y="135">Do it Zero!</tspan></text><g transform="translate(-187 348)"><rect class="f" width="260" height="82" rx="11" transform="translate(1431 7470)"/><text class="g" transform="translate(1526 7491)"><tspan x="0" y="28">SEND</tspan></text></g><rect class="a" width="812" height="222" rx="10" transform="translate(692 7569)"/><text class="h" transform="translate(728 7610)"><tspan x="0" y="28">Let</tspan><tspan class="c" y="28"> </tspan><tspan y="28">us</tspan><tspan class="c" y="28"> </tspan><tspan y="28">know</tspan><tspan class="c" y="28"> </tspan><tspan y="28">your</tspan><tspan class="c" y="28"> </tspan><tspan y="28">thoughts,</tspan><tspan class="c" y="28"> </tspan><tspan y="28">ideas</tspan><tspan class="c" y="28"> </tspan><tspan y="28">and</tspan><tspan class="c" y="28"> </tspan><tspan y="28">how</tspan><tspan class="c" y="28"> </tspan><tspan y="28">we</tspan><tspan class="c" y="28"> </tspan><tspan y="28">can</tspan><tspan class="c" y="28"> </tspan><tspan x="0" y="64">partner.</tspan><tspan class="c" y="64"> </tspan></text><path class="i" d="M15.384,1.928A12.813,12.813,0,1,0,28.2,14.741,12.813,12.813,0,0,0,15.384,1.928Zm0,24.025a11.174,11.174,0,0,1-4.435-.912l5.835-6.564a.8.8,0,0,0,.2-.532v-2.4a.8.8,0,0,0-.8-.8c-2.828,0-5.811-2.94-5.84-2.969a.8.8,0,0,0-.566-.235h-3.2a.8.8,0,0,0-.8.8v4.8a.8.8,0,0,0,.443.716l2.761,1.38v4.7A11.218,11.218,0,0,1,5.252,9.936H8.176A.8.8,0,0,0,8.743,9.7l3.2-3.2a.8.8,0,0,0,.235-.566V3.995a11.243,11.243,0,0,1,8.115.666c-.1.088-.2.179-.3.276a4.806,4.806,0,0,0,3.394,8.2q.119,0,.238-.006a18.806,18.806,0,0,1-.21,9.318.8.8,0,0,0-.021.131,11.177,11.177,0,0,1-8.012,3.37Z" transform="translate(837.652 7653.294)"/></g></svg>