<svg xmlns="http://www.w3.org/2000/svg" xmlns:xlink="http://www.w3.org/1999/xlink" width="303.731" height="216.154" viewBox="0 0 303.731 216.154"><defs><style>.a{fill:none;}.a,.b{stroke:#54bd7e;stroke-miterlimit:10;stroke-width:10px;}.b{fill:#fff;}.c{fill:url(#a);}</style><linearGradient id="a" x1="0.388" y1="0.242" x2="0.699" y2="0.728" gradientUnits="objectBoundingBox"><stop offset="0" stop-color="#fff" stop-opacity="0"/><stop offset="1" stop-color="#fff"/></linearGradient></defs><g transform="translate(-1204.269 -3543.846)"><g transform="translate(1209.269 3548.846)"><circle class="a" cx="12.172" cy="12.172" r="12.172" transform="translate(21.936 0)"/><g transform="translate(73.286 12.172)"><path class="a" d="M-179.9,140.918l30.5-68.785,33.152,68.785" transform="translate(202.709 -3.745)"/><rect class="b" width="109.278" height="87.71" rx="5.617"/></g><path class="b" d="M-256.736,32.489l65.31-.128a6.77,6.77,0,0,1,6.784,6.756v.055l-.021,3.254a6.769,6.769,0,0,1-6.739,6.726l-28.066.131a3.861,3.861,0,0,0-3.842,3.859V142.57a6.663,6.663,0,0,1-6.662,6.663H-233.4a6.69,6.69,0,0,1-6.691-6.691h0V96.068a1.231,1.231,0,0,0-1.226-1.231h-.65a1.235,1.235,0,0,0-1.239,1.229v46.355a6.743,6.743,0,0,1-6.7,6.744l-3.489.025a6.753,6.753,0,0,1-6.8-6.7V55.057h0V85.1a6.684,6.684,0,0,1-6.684,6.685h-.05l-2.349-.017a6.62,6.62,0,0,1-6.57-6.632l.062-33.6A19.083,19.083,0,0,1-256.736,32.489Z" transform="translate(275.843 8.365)"/></g><rect class="c" width="232" height="211" transform="translate(1276 3549)"/></g></svg>