<svg xmlns="http://www.w3.org/2000/svg" xmlns:xlink="http://www.w3.org/1999/xlink" width="208" height="209" viewBox="0 0 208 209"><defs><style>.a,.b{fill:none;stroke:#54bd7e;stroke-miterlimit:10;}.a{stroke-linecap:round;stroke-width:10px;}.b{stroke-width:8px;}.c{fill:url(#a);}</style><linearGradient id="a" x1="0.316" y1="0.433" x2="0.709" y2="0.915" gradientUnits="objectBoundingBox"><stop offset="0" stop-color="#fff" stop-opacity="0"/><stop offset="1" stop-color="#fff"/></linearGradient></defs><g transform="translate(-1231 -4133)"><g transform="translate(1275.437 4170.353)"><g transform="translate(0)"><path class="a" d="M-119.349,687.441h-18.136a7.906,7.906,0,0,1-7.882-7.882V662.218" transform="translate(215.445 -660.354)"/><path class="a" d="M-130.881,686.074l-.281,100.819a7.905,7.905,0,0,1-7.882,7.882h-81.364a7.9,7.9,0,0,1-7.882-7.882v-119a7.905,7.905,0,0,1,7.882-7.882h63.228" transform="translate(228.291 -660.012)"/></g><line class="a" x2="26.301" y2="25.223" transform="translate(71.11 0)"/><g transform="translate(12.995 45.259)"><line class="b" x2="55.345"/><line class="b" x2="55.345" transform="translate(0 10.397)"/><line class="b" x2="37.292" transform="translate(0 21.547)"/></g><g transform="translate(12.995 88.961)"><line class="b" x2="55.345"/><line class="b" x2="55.345" transform="translate(0 10.397)"/><line class="b" x2="37.292" transform="translate(0 21.547)"/></g></g><rect class="c" width="208" height="209" transform="translate(1231 4133)"/></g></svg>