<svg xmlns="http://www.w3.org/2000/svg" xmlns:xlink="http://www.w3.org/1999/xlink" width="629" height="921" viewBox="0 0 629 921"><defs><style>.a,.g{fill:none;}.b{fill:#3c3c3c;opacity:0.8;}.b,.d,.e{font-size:40px;font-family:SegoeUI, Segoe UI;}.c{font-family:NotoSansGeorgian-Regular, Noto Sans Georgian;}.d{fill:#636363;}.e{fill:#707070;}.f{opacity:0.35;clip-path:url(#a);}.g{stroke:#707070;}</style><clipPath id="a"><rect class="a" width="629" height="570"/></clipPath></defs><g transform="translate(-346 -3783)"><g transform="translate(-346 -149)"><g transform="translate(-138 -533)"><text class="b" transform="translate(830 4465)"><tspan x="0" y="43">Educate</tspan><tspan class="c" y="43"> </tspan><tspan y="43">and</tspan><tspan class="c" y="43"> </tspan><tspan y="43">engage</tspan><tspan class="c" y="43"> </tspan><tspan y="43">your</tspan><tspan class="c" y="43"> </tspan><tspan x="0" y="98">employees</tspan><tspan class="c" y="98"> </tspan><tspan y="98">to</tspan><tspan class="c" y="98"> </tspan><tspan y="98">fight</tspan><tspan class="c" y="98"> </tspan><tspan y="98">climate</tspan><tspan class="c" y="98"> </tspan><tspan x="0" y="153">change.</tspan><tspan class="c" y="153"> </tspan></text></g><g transform="translate(32 -775)"><text class="d" transform="translate(660 5041)"><tspan x="0" y="43">Get</tspan><tspan class="c" y="43"> </tspan><tspan y="43">standardized</tspan><tspan class="c" y="43"> </tspan><tspan y="43">reports</tspan><tspan class="c" y="43"> </tspan><tspan y="43">for</tspan><tspan class="c" y="43"> </tspan><tspan y="43">all</tspan><tspan class="c" y="43"> </tspan><tspan x="0" y="98">organizational</tspan><tspan class="c" y="98"> </tspan><tspan y="98">eco</tspan><tspan class="c" y="98">-</tspan><tspan y="98">initiatives</tspan><tspan class="c" y="98"></tspan><tspan class="c"><tspan x="0" y="153"></tspan></tspan></text></g><g transform="translate(-138 -1099)"><text class="e" transform="translate(830 5714)"><tspan x="0" y="43">Share</tspan><tspan class="c" y="43"> </tspan><tspan y="43">progress</tspan><tspan class="c" y="43"> </tspan><tspan y="43">with</tspan><tspan class="c" y="43"> </tspan><tspan y="43">investors</tspan><tspan class="c" y="43"> </tspan><tspan x="0" y="98">and</tspan><tspan class="c" y="98"> </tspan><tspan y="98">other</tspan><tspan class="c" y="98"> </tspan><tspan y="98">stakeholders</tspan><tspan class="c" y="98"></tspan><tspan class="c"><tspan x="0" y="153"></tspan><tspan x="0" y="208"></tspan></tspan></text></g></g><g class="f" transform="translate(346 4045)"><g transform="translate(-1244 -3561.5)"><line class="g" x2="555.5" transform="translate(1244 3562)"/></g><g transform="translate(-826 -3561.5)"><line class="g" x2="555.5" transform="translate(1244 3562)"/></g><g transform="translate(-1244 -3234.5)"><line class="g" x2="555.5" transform="translate(1244 3562)"/></g><g transform="translate(-826 -3234.5)"><line class="g" x2="555.5" transform="translate(1244 3562)"/></g></g></g></svg>