<svg xmlns="http://www.w3.org/2000/svg" xmlns:xlink="http://www.w3.org/1999/xlink" width="709" height="1157" viewBox="0 0 709 1157"><defs><style>.a,.f{fill:none;}.b{fill:#707070;font-size:40px;}.b,.d{font-family:NotoSansGeorgian-Regular, Noto Sans Georgian;}.c{font-family:SegoeUI, Segoe UI;}.e{opacity:0.47;clip-path:url(#a);}.f{stroke:#707070;}</style><clipPath id="a"><rect class="a" width="709" height="571"/></clipPath></defs><g transform="translate(-278 -6513)"><text class="b" transform="translate(278 6513)"><tspan x="0" y="43"></tspan><tspan x="0" y="98"></tspan><tspan class="c"><tspan x="0" y="153">Grow</tspan><tspan class="d" y="153"> </tspan><tspan y="153">your</tspan><tspan class="d" y="153"> </tspan><tspan y="153">sales</tspan><tspan class="d" y="153"> </tspan><tspan y="153">and</tspan><tspan class="d" y="153"> </tspan><tspan y="153">contribute</tspan><tspan class="d" y="153"> </tspan><tspan x="0" y="208">towards</tspan><tspan class="d" y="208"> </tspan><tspan y="208">circular</tspan><tspan class="d" y="208"> </tspan><tspan y="208">economy.</tspan><tspan class="d" y="208"></tspan></tspan><tspan x="0" y="263"></tspan><tspan x="0" y="318"></tspan><tspan x="0" y="373"></tspan><tspan x="0" y="428"></tspan><tspan class="c"><tspan x="0" y="483">Organize</tspan><tspan class="d" y="483"> </tspan><tspan y="483">sales</tspan><tspan class="d" y="483"> </tspan><tspan y="483">promotion</tspan><tspan class="d" y="483"> </tspan><tspan y="483">and</tspan><tspan class="d" y="483"> </tspan><tspan x="0" y="538">customer</tspan><tspan class="d" y="538"> </tspan><tspan y="538">engagement</tspan><tspan class="d" y="538"> </tspan><tspan y="538">programs.</tspan><tspan class="d" y="538"></tspan></tspan><tspan x="0" y="593"></tspan><tspan x="0" y="648"></tspan><tspan x="0" y="703"></tspan><tspan x="0" y="758"></tspan><tspan class="c"><tspan x="0" y="813">Integrate</tspan><tspan class="d" y="813"> </tspan><tspan y="813">carbon</tspan><tspan class="d" y="813"> </tspan><tspan y="813">offset</tspan><tspan class="d" y="813"> </tspan><tspan y="813">program</tspan><tspan class="d" y="813"> </tspan><tspan y="813">for</tspan><tspan class="d" y="813"> </tspan><tspan x="0" y="868">carbon</tspan><tspan class="d" y="868">-</tspan><tspan y="868">neutral</tspan><tspan class="d" y="868"> </tspan><tspan y="868">transactions.</tspan><tspan class="d" y="868"></tspan></tspan><tspan x="0" y="923"></tspan></text><g class="e" transform="translate(278 6867)"><g transform="translate(-1244 -3561.5)"><line class="f" x2="664.5" transform="translate(1244 3562)"/></g><g transform="translate(-1244 -3249.5)"><line class="f" x2="664.5" transform="translate(1244 3562)"/></g></g></g></svg>