<?xml version="1.0" encoding="utf-8"?>
<!-- Generator: Adobe Illustrator 25.4.1, SVG Export Plug-In . SVG Version: 6.00 Build 0)  -->
<svg version="1.1" id="Layer_1" xmlns="http://www.w3.org/2000/svg" xmlns:xlink="http://www.w3.org/1999/xlink" x="0px" y="0px"
	 viewBox="0 0 151.3 151.3" style="enable-background:new 0 0 151.3 151.3;" xml:space="preserve">
<style type="text/css">
	.st0{fill:#FFFFFF;}
	.st1{fill:none;stroke:#DFDFDF;}
	.st2{fill:none;stroke:#1A1818;stroke-width:22;stroke-miterlimit:10;}
	.st3{fill:url(#Path_67_00000109723511854906683550000001888578071327987853_);}
	.st4{fill:url(#Path_68_00000026144146421891061870000007601418107710866343_);}
	.st5{opacity:0.8;fill:none;stroke:#67B87B;stroke-width:4;stroke-linecap:round;stroke-miterlimit:10;enable-background:new    ;}
	.st6{fill:url(#Path_71_00000138548755366490285050000010537148217534745762_);}
	.st7{fill:url(#Path_72_00000060717666738838955640000018056725054592544422_);}
</style>
<g id="Group_182" transform="translate(-1449.854 -4991.365)">
	<g id="Ellipse_18" transform="translate(1449.854 4991.365)">
		<circle class="st0" cx="75.7" cy="75.7" r="75.7"/>
		<circle class="st1" cx="75.7" cy="75.7" r="75.2"/>
	</g>
	<g id="Group_85" transform="translate(1477.963 5028.46)">
		<path id="Path_66" class="st2" d="M70.3,49.8"/>
		
			<linearGradient id="Path_67_00000175286379451131175870000010772150499526445753_" gradientUnits="userSpaceOnUse" x1="-113.2645" y1="179.8006" x2="-112.3437" y2="180.1945" gradientTransform="matrix(20.3673 14.6434 14.4921 -20.1569 -634.6147 5233.7109)">
			<stop  offset="0" style="stop-color:#FFFFFF"/>
			<stop  offset="0.828" style="stop-color:#67B87B"/>
		</linearGradient>
		<path id="Path_67" style="fill:url(#Path_67_00000175286379451131175870000010772150499526445753_);" d="M65.2,45.6
			c-0.4-4.7,1.9-9.2,5.9-11.6c5.9-3.6,13.6-1.8,17.3,4c3.6,5.9,1.8,13.6-4,17.3c-3.5,2.2-7.9,2.5-11.7,0.8l3.1-7
			c1.5,0.7,3.2,0.6,4.6-0.3c2.3-1.4,3-4.4,1.6-6.7c-1.4-2.3-4.4-3-6.7-1.6c-1.5,1-2.4,2.7-2.3,4.5L65.2,45.6z"/>
		
			<linearGradient id="Path_68_00000147913566587324232990000013309706371022716040_" gradientUnits="userSpaceOnUse" x1="-101.9126" y1="183.9" x2="-101.2346" y2="185.036" gradientTransform="matrix(62.9703 45.2734 28.3539 -39.4372 980.4233 11967.6875)">
			<stop  offset="0" style="stop-color:#FFFFFF"/>
			<stop  offset="9.200000e-02" style="stop-color:#E8F4EB"/>
			<stop  offset="0.304" style="stop-color:#BADFC3"/>
			<stop  offset="0.508" style="stop-color:#96CEA4"/>
			<stop  offset="0.697" style="stop-color:#7CC18D"/>
			<stop  offset="0.867" style="stop-color:#6CBA7F"/>
			<stop  offset="1" style="stop-color:#67B87B"/>
		</linearGradient>
		<path id="Path_68" style="fill:url(#Path_68_00000147913566587324232990000013309706371022716040_);" d="M-8.4,45.5l-4.1-4.8
			l31.8,1.7c7,0.4,13.1,4.7,15.9,11.1c2.8,6.7,9.9,10.6,17.1,9.1c7.2-1.2,12.5-7.4,12.7-14.7l0.2-3.8l7.7,0.4l-0.2,3.8
			c-0.2,5.5-2.3,10.8-6.1,14.9c-3.4,3.6-8,6.1-12.9,7C43,72.3,32.3,66.6,28.1,56.5c-1.6-3.7-5.2-6.2-9.3-6.5L-1.4,49
			C-4.1,48.8-6.6,47.6-8.4,45.5z"/>
		<line id="Line_7" class="st5" x1="90" y1="61.1" x2="87.7" y2="57.4"/>
		
			<linearGradient id="Path_71_00000016033454503352322180000014728606881868320430_" gradientUnits="userSpaceOnUse" x1="-99.3123" y1="189.5072" x2="-98.6573" y2="188.8842" gradientTransform="matrix(18.7448 53.6457 41.1335 -14.3728 -5867.9937 8047.855)">
			<stop  offset="0" style="stop-color:#FFFFFF"/>
			<stop  offset="1" style="stop-color:#67B87B"/>
		</linearGradient>
		<path id="Path_71" style="fill:url(#Path_71_00000016033454503352322180000014728606881868320430_);" d="M66.1,0.7
			c0.2-1.7-1-3.4-2.7-3.6c-1.3-0.2-2.6,0.5-3.3,1.6L38.7,43.3c-2.5,6.1-0.4,15.1,8.2,17.3c7.6,1.9,14.1-3.7,14.5-9.9L66.1,0.7z"/>
		
			<linearGradient id="Path_72_00000139269240794012957860000014500928711558143387_" gradientUnits="userSpaceOnUse" x1="-100.143" y1="188.4093" x2="-98.777" y2="187.2873" gradientTransform="matrix(46.1337 33.1685 25.4323 -35.3735 -149.9679 9965.9932)">
			<stop  offset="0" style="stop-color:#FFFFFF"/>
			<stop  offset="1" style="stop-color:#67B87B"/>
		</linearGradient>
		<path id="Path_72" style="fill:url(#Path_72_00000139269240794012957860000014500928711558143387_);" d="M35.5-0.4
			c-0.8-1.6-2.7-2.2-4.3-1.4c-1.2,0.6-1.9,1.9-1.7,3.2l8.1,48.7c1.5,6.4,8.3,12.6,16.7,9.4c7.3-2.8,9.4-11.1,6.2-16.4L35.5-0.4z"/>
	</g>
</g>
</svg>
