<?xml version="1.0" encoding="utf-8"?>
<!-- Generator: Adobe Illustrator 25.4.1, SVG Export Plug-In . SVG Version: 6.00 Build 0)  -->
<svg version="1.1" id="Layer_1" xmlns="http://www.w3.org/2000/svg" xmlns:xlink="http://www.w3.org/1999/xlink" x="0px" y="0px"
	 viewBox="0 0 260 360"  width="260" height="360"  style="enable-background:new 0 0 260 360;" xml:space="preserve">
<style type="text/css">
	.st0{clip-path:url(#SVGID_00000160871763470007634980000010697114011744755845_);}
	.st1{fill:#48B549;}
	.st2{fill:#F5E196;}
	.st3{fill:#E7C648;}
	.st4{fill:#BCDFB4;}
	.st5{fill:#F5865E;}
	.st6{fill:none;}
	.st7{fill:#FFFFFF;}
	.st8{fill:none;stroke:#FFFFFF;stroke-width:8.0206;stroke-miterlimit:10.0258;}
	.st9{fill:none;stroke:#FFFFFF;stroke-width:7.018;stroke-miterlimit:10.0258;}
	.st10{fill:none;stroke:#FFFFFF;stroke-width:6.0155;stroke-miterlimit:10.0258;}
	.st11{fill:url(#Rectangle_43_00000163763668092063473550000007211002518133656974_);}
	.st12{font-family:'SegoeUI-Semibold';}
	.st13{font-size:46.1186px;}
	.st14{font-size:24.0619px;}
</style>
<g id="Group_182">
	<g id="Group_86">
		<g>
			<defs>
				<path id="SVGID_1_" d="M12,0.7h234.6c6.6,0,12,5.4,12,12v330.9c0,6.6-5.4,12-12,12H12c-6.6,0-12-5.4-12-12V12.7
					C0,6.1,5.4,0.7,12,0.7z"/>
			</defs>
			<clipPath id="SVGID_00000023973084599463861840000005947750086643242667_">
				<use xlink:href="#SVGID_1_"  style="overflow:visible;"/>
			</clipPath>
			<g style="clip-path:url(#SVGID_00000023973084599463861840000005947750086643242667_);">
				<g id="Mask_Group_9">
					<g id="Group_65">
						<g id="Group_64">
							<g id="Group_63">
								<g id="Group_62">
									<rect id="Rectangle_33" x="-14.3" y="-27.1" class="st1" width="229.7" height="538.7"/>
								</g>
							</g>
						</g>
						<path id="Path_40" class="st2" d="M214.9,299.6L4.9,511.7h210.5L214.9,299.6z"/>
						<path id="Path_41" class="st3" d="M349.8,511.7H214.9V299.5h330.9L349.8,511.7z"/>
						<path id="Path_42" class="st4" d="M544.7-26.8l1,325.4l-330.6,1.1V-27.1"/>
						<path id="Path_43" class="st5" d="M214.7,299.7L544.7-26.8v326.5H214.7z"/>
					</g>
				</g>
			</g>
		</g>
	</g>
	<g id="Group_135">
		<g id="Path_120">
			<path class="st6" d="M97.3,128.4c20.2-22.1,71-7.9,73.7,37.9c2.6,44.6-12.3,127.7-49.9,125c-19-1.4-28.8-18.5-24.3-48.6
				C105.8,182.4,72.7,155.2,97.3,128.4z"/>
			<path class="st7" d="M122.7,137.2c-4.8,0-9,1.5-11.3,4c-5.8,6.4-5.4,11.3-0.7,31.3c4.1,17.5,9.7,41.4,4.9,73
				c-2,13.7-0.2,21.8,2.3,24.8c0.5,0.6,1.4,1.7,5,2c0.7,0,2.7,0,6.2-3.7c15.5-16.4,24.9-67,22.9-101.3
				C150.7,145.2,133.8,137.2,122.7,137.2 M122.7,118.1c21.8,0,46.5,16.5,48.3,48.1c2.6,44.6-12.3,127.7-49.9,125
				c-19-1.4-28.8-18.5-24.3-48.6c9-60.3-24.1-87.5,0.6-114.4C103.6,121.5,112.9,118.1,122.7,118.1L122.7,118.1z"/>
		</g>
		<ellipse id="Ellipse_26" class="st8" cx="92.5" cy="95" rx="12.7" ry="14.8"/>
		<ellipse id="Ellipse_27" class="st9" cx="123" cy="93.7" rx="7.3" ry="8.6"/>
		<ellipse id="Ellipse_28" class="st10" cx="143.8" cy="100.7" rx="6.2" ry="7.3"/>
		
			<ellipse id="Ellipse_29" transform="matrix(0.1063 -0.9943 0.9943 0.1063 30.0901 262.9336)" class="st10" cx="161.3" cy="114.7" rx="6.8" ry="5.9"/>
		<ellipse id="Ellipse_30" class="st10" cx="172.1" cy="133.6" rx="4.9" ry="5.7"/>
	</g>
	
		<linearGradient id="Rectangle_43_00000174586699232437601770000010270928665862547118_" gradientUnits="userSpaceOnUse" x1="116.8983" y1="-449.6271" x2="116.9583" y2="-448.8571" gradientTransform="matrix(123.3171 0 0 172.4434 -14316.1348 77736.75)">
		<stop  offset="0" style="stop-color:#48B549;stop-opacity:0"/>
		<stop  offset="1" style="stop-color:#48B549"/>
	</linearGradient>
	
		<rect id="Rectangle_43" x="40.1" y="157.1" style="fill:url(#Rectangle_43_00000174586699232437601770000010270928665862547118_);" width="123.3" height="172.4"/>
	<g id="Group_144">
		<g id="co">
			<text transform="matrix(1 0 0 1 26.5584 216.2113)" class="st7 st12 st13">co</text>
		</g>
		<g id="_2">
			<text transform="matrix(1 0 0 1 74.6819 232.2533)" class="st7 st12 st14">2</text>
		</g>
	</g>
</g>
</svg>
