<?xml version="1.0" encoding="utf-8"?>
<!-- Generator: Adobe Illustrator 25.4.1, SVG Export Plug-In . SVG Version: 6.00 Build 0)  -->
<svg version="1.1" id="Layer_1" xmlns="http://www.w3.org/2000/svg" xmlns:xlink="http://www.w3.org/1999/xlink" x="0px" y="0px"
	 viewBox="0 0 260 360" width="260" height="360" style="enable-background:new 0 0 260 360;" xml:space="preserve">
<style type="text/css">
	.st0{clip-path:url(#SVGID_00000083781884787160670310000012260489789769321356_);}
	.st1{fill:#48B549;}
	.st2{fill:#BCDFB4;}
	.st3{fill:#F5E196;}
	.st4{fill:#F5865E;}
	.st5{fill:url(#Path_56_00000171716720842732447660000010323048591544939171_);}
	.st6{fill:url(#Path_57_00000108282559021622686820000008959501840426890163_);}
	.st7{fill:#FFFFFF;}
	.st8{fill:url(#Path_60_00000143618472849972104000000010901539617757951893_);}
	.st9{fill:#E8E8E8;}
</style>
<g id="Group_183">
	<g id="Group_88">
		<g>
			<defs>
				<path id="SVGID_1_" d="M12,0h234c6.6,0,12,5.4,12,12v330c0,6.6-5.4,12-12,12H12c-6.6,0-12-5.4-12-12V12C0,5.4,5.4,0,12,0z"/>
			</defs>
			<clipPath id="SVGID_00000080928337990994785430000003353075563890289319_">
				<use xlink:href="#SVGID_1_"  style="overflow:visible;"/>
			</clipPath>
			<g style="clip-path:url(#SVGID_00000080928337990994785430000003353075563890289319_);">
				<g id="Mask_Group_11">
					<g id="Group_73">
						<g id="Group_72">
							<g id="Group_71">
								<g id="Group_70">
									<rect id="Rectangle_37" x="-171.7" y="-140.7" class="st1" width="209.9" height="537.3"/>
								</g>
							</g>
						</g>
						<path id="Path_48" class="st2" d="M37.8,70.8l-209.5-211.5H38.2L37.8,70.8z"/>
						<path id="Path_49" class="st3" d="M172.3-140.7H37.7V71h330L172.3-140.7z"/>
						<path id="Path_50" class="st4" d="M366.7,396.4l1-324.6L38,70.7v326"/>
						<path id="Path_51" class="st4" d="M37.5,70.7l329.2,325.7V70.7H37.5z"/>
					</g>
				</g>
			</g>
		</g>
		<g id="Group_76">
			
				<linearGradient id="Path_56_00000008124244635553171680000009501296758229574016_" gradientUnits="userSpaceOnUse" x1="-66.9405" y1="-568.3707" x2="-66.2905" y2="-567.6407" gradientTransform="matrix(70.25 0 0 106.84 4865.8848 60978.0312)">
				<stop  offset="0" style="stop-color:#FFFFFF"/>
				<stop  offset="1" style="stop-color:#FFFFFF;stop-opacity:0.16"/>
			</linearGradient>
			<path id="Path_56" style="fill:url(#Path_56_00000008124244635553171680000009501296758229574016_);" d="M211.5,354h11.1
				l-11.2-23.2c-4-7.7-5.9-16.4-5.5-25c0.6-12.8-4.6-25.3-14.1-33.9l-0.1-0.1l-27.3-23.2c-2.3-1.9-5.7-1.7-7.6,0.6
				c-0.4,0.5-0.7,1-0.9,1.6l-1.8,4.2c-2.9,7.2-2,14.6,2.1,19.9l0.3,0.4l4.9,4.1l6.7-8l-4.1-3.4c-1.2-2-1.6-4.5-1-6.7l21.7,18.5
				c7.2,6.5,11.1,15.9,10.7,25.6c-0.4,10.5,1.9,20.9,6.6,30.3L211.5,354z"/>
			
				<linearGradient id="Path_57_00000114050722110047308570000014344957523210430115_" gradientUnits="userSpaceOnUse" x1="-72.0336" y1="-569.7648" x2="-70.2136" y2="-568.1348" gradientTransform="matrix(54.59 0 0 85.09 4046.823 48677.3359)">
				<stop  offset="0" style="stop-color:#FFFFFF"/>
				<stop  offset="1" style="stop-color:#FFFFFF;stop-opacity:0.74"/>
			</linearGradient>
			<path id="Path_57" style="fill:url(#Path_57_00000114050722110047308570000014344957523210430115_);" d="M175.1,291.2l6.7-8
				l-21.1-17.7c-5-4.2-8.2-10.1-9-16.6v-0.1l-3.6-26.6c-1-7.5-6.7-13.6-14.1-15.2l-4.6-1l-2.2,10.3l4.6,1c3.1,0.7,5.5,3.2,5.9,6.4
				l3.6,26.5c1.1,9.1,5.6,17.4,12.6,23.2L175.1,291.2z"/>
			<path id="Path_58" class="st7" d="M128.5,266.4l10.4-1.4l-6.8-52.9c-1-6.9-6.2-12.5-13-13.9l-5.6-1.2c-2.9-0.6-5.8,1.2-6.4,4.1
				c0,0,0,0,0,0c-0.1,0.6-0.1,1.1-0.1,1.7l2.3,19.9l10.4-1.2l-1.5-12.8c1.9,0.8,3.2,2.5,3.5,4.6L128.5,266.4z"/>
			<path id="Path_59" class="st7" d="M114.8,268.2l10.4-1.3l-5.9-47.3c-0.9-7-6.1-12.7-13.1-14.2l-5.7-1.2c-3-0.6-5.9,1.3-6.5,4.2
				c-0.1,0.6-0.1,1.1-0.1,1.7l2.4,22.1l10.4-1.1l-1.6-15.2c2.1,0.8,3.5,2.7,3.8,4.9L114.8,268.2z"/>
			
				<linearGradient id="Path_60_00000155865251952181463500000001485137462365070761_" gradientUnits="userSpaceOnUse" x1="-64.5426" y1="-567.0007" x2="-63.7526" y2="-566.5007" gradientTransform="matrix(82.86 0 0 142.05 5434.9517 80788.1953)">
				<stop  offset="0" style="stop-color:#FFFFFF"/>
				<stop  offset="1" style="stop-color:#FFFFFF;stop-opacity:8.000000e-02"/>
			</linearGradient>
			<path id="Path_60" style="fill:url(#Path_60_00000155865251952181463500000001485137462365070761_);" d="M153.2,354H165l-4.5-8.6
				c-7.5-15.3-17.6-23.7-26.5-29.8l-23.5-16.3c-4.1-2.8-11.4-10.2-12.7-19.8l-4.6-55.6c1.7,0.9,2.8,2.6,2.9,4.5l4,41.4l10.4-1
				l-4-41.4c-0.6-6.9-5.6-12.7-12.4-14.2l-5.3-1.1c-2.9-0.6-5.8,1.3-6.5,4.2c-0.1,0.5-0.1,1.1-0.1,1.6l5.2,62.7v0.1
				c1.6,12.4,10.2,22.4,17.2,27.1l23.5,16.3c8.2,5.7,16.7,12.7,23.1,25.9l0.1,0.1L153.2,354z M92.5,217L92.5,217z"/>
		</g>
	</g>
	
		<ellipse id="Ellipse_32" transform="matrix(0.5448 -0.8386 0.8386 0.5448 -4.6058 142.5535)" class="st9" cx="129" cy="75.5" rx="14.5" ry="21.5"/>
	
		<ellipse id="Ellipse_33" transform="matrix(0.5448 -0.8386 0.8386 0.5448 -1.6583 142.8306)" class="st7" cx="130.7" cy="72.9" rx="14" ry="21.5"/>
	<g id="Group_153">
		<circle id="Ellipse_23" class="st7" cx="149.5" cy="150.5" r="20.5"/>
		<path id="Icon_awesome-rupee-sign" class="st4" d="M155.8,144.7c0.3,0,0.5-0.2,0.5-0.5l0,0v-1.7c0-0.3-0.2-0.5-0.5-0.5l0,0h-12.5
			c-0.3,0-0.5,0.2-0.5,0.5l0,0l0,0v1.9c0,0.3,0.2,0.5,0.5,0.5l0,0h3.6c1-0.1,2,0.4,2.6,1.2h-6.2c-0.3,0-0.5,0.2-0.5,0.5c0,0,0,0,0,0
			v1.7c0,0.3,0.2,0.5,0.5,0.5l0,0h6.7c-0.2,1.5-1.6,2.6-3.2,2.5h-3.6c-0.3,0-0.5,0.2-0.5,0.5v2.2c0,0.1,0.1,0.3,0.2,0.4l7,6.5
			c0.1,0.1,0.2,0.1,0.3,0.1h3.5c0.3,0,0.5-0.2,0.5-0.5l0,0c0-0.1-0.1-0.3-0.2-0.4l-6.4-5.9c3.1,0,5.7-2.3,5.9-5.4h2.2
			c0.3,0,0.5-0.2,0.5-0.5l0,0v-1.7c0-0.3-0.2-0.5-0.5-0.5l0,0h-2.5c-0.1-0.5-0.3-0.9-0.6-1.4L155.8,144.7z"/>
	</g>
</g>
</svg>
