<svg id="Layer_1" data-name="Layer 1" xmlns="http://www.w3.org/2000/svg" xmlns:xlink="http://www.w3.org/1999/xlink" 
width="200"
height="200"
viewBox="0 0 191.44 121.59"><defs><style>.cls-1{fill:url(#linear-gradient);}</style><linearGradient id="linear-gradient" x1="287.62" y1="329.43" x2="193.01" y2="152.56" gradientUnits="userSpaceOnUse"><stop offset="0" stop-color="#fff"/><stop offset="0.25" stop-color="#bee6ce"/><stop offset="0.5" stop-color="#86d0a3"/><stop offset="0.68" stop-color="#63c289"/><stop offset="0.78" stop-color="#56bd7f"/></linearGradient></defs><path class="cls-1" d="M264.7,201.71l-1.48,1.68-35.77-22.55a21.68,21.68,0,0,0-26.28,2.43l-8.64,8a7,7,0,0,1-9.64-.13l-.14-.14a4.75,4.75,0,0,1,.2-6.7l26.16-24.63a31,31,0,0,1,22.63-8.36H232l67.43,0v-9l-67.32,0a40.14,40.14,0,0,0-22.59,5.84l-8.53-4.22a46.07,46.07,0,0,0-20.32-4.75H107.94v9h72.67A37.14,37.14,0,0,1,196.94,152l4.71,2.34-24.87,23.42a13.76,13.76,0,0,0-.58,19.42l.39.41a16,16,0,0,0,22.06.29l8.64-8a12.67,12.67,0,0,1,15.36-1.42l42.19,26.61a4.62,4.62,0,0,1,1.42,6.4,4.25,4.25,0,0,1-5.84,1.29l-33.58-21a4.5,4.5,0,0,0-4.79,7.62l23.12,14.58a4.06,4.06,0,0,1,1.24,5.57l-.24.36a4,4,0,0,1-5.5,1.31l-21.34-12.68a4.5,4.5,0,0,0-4.67,7.7l11.44,7.07a4,4,0,0,1,1.82,2.52,4.1,4.1,0,0,1-.55,3.15,4.18,4.18,0,0,1-5.67,1.29l-10.32-6.17a4.5,4.5,0,0,0-4.66,7.7l3.14,1.92a4.07,4.07,0,0,1,1.83,2.53,4,4,0,0,1-.49,3.08l-.07.12a4.54,4.54,0,0,1-6.13,1.47l-1.43-.83a11.66,11.66,0,0,0-3.8-14.5,11.8,11.8,0,0,0-3.9-1.77,12.58,12.58,0,0,0,.14-5,12.43,12.43,0,0,0-5.11-8.08l-.82-.57h0a12.42,12.42,0,0,0-9.33-2.1,13.54,13.54,0,0,0-1.92.51,12,12,0,0,0-3.78-4.38h0a12,12,0,0,0-12.94-.56,11.94,11.94,0,0,0-14.31-4.74l-.11-.22A13.62,13.62,0,0,0,135.42,201H111.89v9h23.53a4.67,4.67,0,0,1,4.21,2.61l1.22,2.47-1.09,1.56a12,12,0,0,0,9.78,18.91c.25,0,.51,0,.76,0a12,12,0,0,0,11.62,9.19c.3,0,.6,0,.91,0a12.39,12.39,0,0,0,4.89,7.14l.82.58a12.36,12.36,0,0,0,11.11,1.63,11.62,11.62,0,0,0,10.51,6.72,12.39,12.39,0,0,0,2-.17,11.63,11.63,0,0,0,6.19-3.19l2.09,1.22a13.51,13.51,0,0,0,18.27-4.41l.16-.26a12.9,12.9,0,0,0,1.73-4.54,13.14,13.14,0,0,0,14.3-5.59l.16-.26a13.09,13.09,0,0,0,1.7-4.29,13,13,0,0,0,17-4.6l.23-.36a13.17,13.17,0,0,0,1.67-3.94,13.27,13.27,0,0,0,18.14-4l.09-.14a13.62,13.62,0,0,0-3-17.91l.58-.67A13.65,13.65,0,0,1,281.67,203h17.7v-9h-17.7A22.61,22.61,0,0,0,264.7,201.71ZM147.84,226a3,3,0,0,1-.73-4.18l2.46-3.49a3,3,0,0,1,1.94-1.23,3.12,3.12,0,0,1,.52,0,3,3,0,0,1,2.45,4.72l-2.46,3.5a3,3,0,0,1-4.18.72Zm12.38,9.16a3,3,0,0,1-.72-4.18l6.19-8.77a3,3,0,0,1,2.45-1.27,2.94,2.94,0,0,1,1.72.54,3,3,0,0,1,.73,4.18l-6.19,8.78a3,3,0,0,1-4.18.72Zm13.5,9.87-.81-.57a3.5,3.5,0,0,1-.84-4.88l8-11.28a3.49,3.49,0,0,1,2.26-1.43,3.2,3.2,0,0,1,.61,0,3.5,3.5,0,0,1,2,.64l.81.57a3.5,3.5,0,0,1,.84,4.88l-8,11.28A3.5,3.5,0,0,1,173.72,245.07Zm21.5,1.51-2.88,4.08a2.63,2.63,0,0,1-1.7,1.08,2.64,2.64,0,0,1-2.61-4.12l2.88-4.08a2.63,2.63,0,0,1,2.16-1.12,2.58,2.58,0,0,1,1.51.48h0A2.64,2.64,0,0,1,195.22,246.58Z" transform="translate(-107.94 -139.19)"/></svg>