<svg xmlns="http://www.w3.org/2000/svg" xmlns:xlink="http://www.w3.org/1999/xlink" width="147" height="146" viewBox="0 0 147 146">
  <defs>
    <linearGradient id="linear-gradient" x1="0.5" y1="1.158" x2="0.5" y2="-0.333" gradientUnits="objectBoundingBox">
      <stop offset="0" stop-color="#18a854"/>
      <stop offset="1" stop-color="#fff"/>
    </linearGradient>
  </defs>
  <g id="Group_83" data-name="Group 83" transform="translate(0.048 -0.483)">
    <g id="Ellipse_18" data-name="Ellipse 18" transform="translate(-0.048 0.483)" fill="#fafafa" stroke="#dfdfdf" stroke-width="1">
      <ellipse cx="73.5" cy="73" rx="73.5" ry="73" stroke="none"/>
      <ellipse cx="73.5" cy="73" rx="73" ry="72.5" fill="none"/>
    </g>
    <g id="Group_77" data-name="Group 77" transform="translate(48.187 26.503)">
      <g id="Group_82" data-name="Group 82" transform="translate(0 0)">
        <g id="Group_77-2" data-name="Group 77" transform="translate(14.223 23.527)" opacity="0.4">
          <path id="Path_62" data-name="Path 62" d="M1248.96,201.335l11.418,8.446,10.389-8.446" transform="translate(-1248.96 -201.335)" fill="none" stroke="#c3e8d2" stroke-miterlimit="10" stroke-width="4"/>
        </g>
        <g id="Group_78" data-name="Group 78" transform="translate(8.83 34.501)" opacity="0.6">
          <path id="Path_63" data-name="Path 63" d="M1235.021,229.7l16.472,13.72,16.121-13.72" transform="translate(-1235.021 -229.697)" fill="none" stroke="#7ecea0" stroke-miterlimit="10" stroke-width="4"/>
        </g>
        <g id="Group_79" data-name="Group 79" transform="translate(4.784 48.221)">
          <path id="Path_64" data-name="Path 64" d="M1224.563,265.159l20.719,18.468,19.966-18.468" transform="translate(-1224.563 -265.159)" fill="none" stroke="#50b178" stroke-miterlimit="10" stroke-width="4"/>
        </g>
        <g id="Group_81" data-name="Group 81">
          <g id="Group_80" data-name="Group 80">
            <path id="Path_65" data-name="Path 65" d="M1237.958,228.3l-1.283-.433a38.751,38.751,0,0,1-12.308-7.586c-5.551-5.015-12.167-13.963-12.167-28.112,0-29.056,22.25-48.648,23.2-49.467l2.516-2.178,2.522,2.17c.893.768,21.872,19.164,22.016,49.458.067,14.077-6.192,23.017-11.454,28.038a36.764,36.764,0,0,1-11.766,7.655Zm-.054-77.668c-5.53,5.827-18.147,21.339-18.147,41.537a30.149,30.149,0,0,0,18.119,28.293c4.186-1.977,17.107-9.6,17.018-28.276C1254.794,171.2,1243.145,156.287,1237.9,150.636Z" transform="translate(-1212.199 -140.528)" fill="url(#linear-gradient)"/>
          </g>
        </g>
      </g>
    </g>
  </g>
</svg>
