<svg id="Layer_1" data-name="Layer 1" xmlns="http://www.w3.org/2000/svg" xmlns:xlink="http://www.w3.org/1999/xlink" 
width="200"
height="200"
viewBox="0 0 140.57 193.83"><defs><style>.cls-1{fill:none;}.cls-2{fill:url(#linear-gradient);}.cls-3,.cls-5,.cls-6{fill:#56bd7f;}.cls-4,.cls-5,.cls-6{isolation:isolate;}.cls-5{font-size:40px;}.cls-5,.cls-6{font-family:SegoeUI-Semibold, Segoe UI;font-weight:600;}.cls-6{font-size:18px;}</style><linearGradient id="linear-gradient" x1="229.34" y1="340.19" x2="211.51" y2="241.53" gradientUnits="userSpaceOnUse"><stop offset="0.05" stop-color="#fff"/><stop offset="0.95" stop-color="#56bd7f"/></linearGradient></defs><g id="Group_146" data-name="Group 146"><g id="Group_136" data-name="Group 136"><g id="Path_120" data-name="Path 120"><path class="cls-1" d="M181.15,176.57c18.16-19.82,63.82-7.13,66.19,34.1,2.3,40.07-11,114.77-44.84,112.35-17-1.22-25.91-16.61-21.86-43.67C188.76,225.15,159,200.7,181.15,176.57Z" transform="translate(-115.13 -129.25)"/><path class="cls-2" d="M203.92,179.39c-5.86,0-10.8,1.88-13.92,5.29-7,7.62-6.18,14.25-1.85,32.78,3.77,16.15,8.47,36.25,4.36,63.67-1.79,12-.65,21.56,3.13,26.28,1.13,1.41,3.15,3.32,8.46,3.67,1.14,0,4.62,0,9.27-4.92,15.23-16.13,23.81-62.91,22-94.8-1.2-20.77-17.09-32-31.44-32m0-12c19.59,0,41.79,14.86,43.42,43.28,2.29,40.07-11,114.77-44.84,112.35-17-1.22-25.91-16.61-21.86-43.67,8.12-54.2-21.61-78.65.51-102.78C186.79,170.41,195.09,167.39,203.92,167.39Z" transform="translate(-115.13 -129.25)"/></g><path class="cls-3" d="M176.82,163.9c-8.51,0-15.44-7.77-15.44-17.32s6.93-17.33,15.44-17.33,15.44,7.77,15.44,17.33S185.33,163.9,176.82,163.9Zm0-26.65c-4.1,0-7.44,4.19-7.44,9.33s3.34,9.32,7.44,9.32,7.44-4.18,7.44-9.32S180.92,137.25,176.82,137.25Z" transform="translate(-115.13 -129.25)"/><path class="cls-3" d="M204.18,156.6c-5.57,0-10.1-5-10.1-11.19s4.53-11.19,10.1-11.19,10.1,5,10.1,11.19S209.75,156.6,204.18,156.6Zm0-15.38c-1.68,0-3.1,1.92-3.1,4.19s1.42,4.19,3.1,4.19,3.1-1.92,3.1-4.19S205.86,141.22,204.18,141.22Z" transform="translate(-115.13 -129.25)"/><path class="cls-3" d="M222.94,161.21c-4.74,0-8.6-4.28-8.6-9.53s3.86-9.52,8.6-9.52,8.6,4.27,8.6,9.52S227.69,161.21,222.94,161.21Zm0-13.05c-1.4,0-2.6,1.61-2.6,3.52s1.2,3.53,2.6,3.53,2.6-1.62,2.6-3.53S224.35,148.16,222.94,148.16Z" transform="translate(-115.13 -129.25)"/><path class="cls-3" d="M238.47,173.45a7,7,0,0,1-.79,0c-4.53-.49-7.78-4.95-7.25-10h0c.54-5,4.65-8.67,9.19-8.2a7.94,7.94,0,0,1,5.66,3.46,9.87,9.87,0,0,1-1.34,12.51A8,8,0,0,1,238.47,173.45Zm-2.07-9.36c-.18,1.69.7,3.22,1.92,3.35a2,2,0,0,0,1.51-.59,3.87,3.87,0,0,0,.51-4.74,2,2,0,0,0-1.36-.89c-1.22-.14-2.4,1.18-2.58,2.87Z" transform="translate(-115.13 -129.25)"/><path class="cls-3" d="M248.31,189.35c-4.08,0-7.39-3.64-7.39-8.11s3.31-8.11,7.39-8.11,7.38,3.64,7.38,8.11S252.38,189.35,248.31,189.35Zm0-10.22c-.66,0-1.39.9-1.39,2.11s.73,2.11,1.39,2.11,1.38-.9,1.38-2.11S249,179.13,248.31,179.13Z" transform="translate(-115.13 -129.25)"/></g><g id="Group_137" data-name="Group 137"><g id="co" class="cls-4"><text class="cls-5" transform="translate(0 105.37)">co</text></g><g id="_2" data-name=" 2" class="cls-4"><text class="cls-6" transform="translate(46.07 121.82)">2</text></g></g></g></svg>