<svg id="Layer_1" data-name="Layer 1" xmlns="http://www.w3.org/2000/svg" viewBox="0 0 55.17 28.57"><defs><style>.cls-1{fill:none;}.cls-1,.cls-2{stroke:#3689c9;stroke-miterlimit:10;stroke-width:5px;}.cls-2{fill:#1277bc;}.cls-3{fill:#8ac766;}.cls-4{fill:#b2d786;}.cls-5{fill:#80c466;}.cls-6{fill:#4bb448;}.cls-7{fill:#5bbb53;}</style></defs><path class="cls-1" d="M95.63,112.05a11.09,11.09,0,1,0,0-22.17H92.34" transform="translate(-88.01 -87.35)"/><line class="cls-2" x1="27.85" y1="0.28" x2="27.85" y2="27.31"/><line class="cls-2" x1="2.5" x2="2.5" y2="27.66"/><path class="cls-1" d="M124.86,92.67a14.28,14.28,0,0,1,16.75.07" transform="translate(-88.01 -87.35)"/><path class="cls-1" d="M124.86,110.75a14.25,14.25,0,0,0,16.75-.08" transform="translate(-88.01 -87.35)"/><path class="cls-3" d="M140.47,97.41a5.28,5.28,0,0,0-.62-1.8,8.4,8.4,0,0,1-.69,2.11" transform="translate(-88.01 -87.35)"/><path class="cls-4" d="M138.26,102.67a5.46,5.46,0,0,0,2.23-5.16l-1.38.33a8.89,8.89,0,0,1-3.85,3.33" transform="translate(-88.01 -87.35)"/><path class="cls-5" d="M133.06,105.29a19.21,19.21,0,0,0,5.07-2.53l-3-1.51c-.43.23-.89.46-1.4.7a26.87,26.87,0,0,0-2.8,1.5" transform="translate(-88.01 -87.35)"/><path class="cls-6" d="M126.54,108.11c1-.93,3.65-1.69,6.38-2.74l-2.08-1.83c-3.89,2.2-4.3,4.57-4.3,4.57" transform="translate(-88.01 -87.35)"/><path class="cls-4" d="M137.43,99.4a6.77,6.77,0,0,0,2.31-3.79,13.52,13.52,0,0,1-2.48,1.21" transform="translate(-88.01 -87.35)"/><path class="cls-6" d="M128.06,101.19c-3.37,2.7-1.59,6.87-1.59,6.87a5.66,5.66,0,0,1,2.19-3.42" transform="translate(-88.01 -87.35)"/><path class="cls-3" d="M132.85,102l.74-.37a18.22,18.22,0,0,0,3.71-2.18l-.17-2.6c-1.47.65-3,1.15-4.42,1.81" transform="translate(-88.01 -87.35)"/><path class="cls-7" d="M128.8,104.53a19.9,19.9,0,0,1,3.91-2.44l-.15-3.33c-.74.3-1.7.78-2.15,1a10.3,10.3,0,0,0-2.2,1.33" transform="translate(-88.01 -87.35)"/></svg>