<svg id="Layer_1" data-name="Layer 1" xmlns="http://www.w3.org/2000/svg" xmlns:xlink="http://www.w3.org/1999/xlink" 
width="200"
height="200"
viewBox="0 0 161.09 161.06"><defs><style>.cls-1{fill:#56bd7f;}.cls-2{fill:url(#linear-gradient);}.cls-3{fill:url(#linear-gradient-2);}</style><linearGradient id="linear-gradient" x1="221.73" y1="303.73" x2="139.01" y2="201.48" gradientUnits="userSpaceOnUse"><stop offset="0" stop-color="#fff"/><stop offset="0.9" stop-color="#56bd7f"/></linearGradient><linearGradient id="linear-gradient-2" x1="306.7" y1="309.5" x2="205.37" y2="165.6" gradientUnits="userSpaceOnUse"><stop offset="0" stop-color="#d8eddd"/><stop offset="0.92" stop-color="#56bd7f"/></linearGradient></defs><g id="Group_139" data-name="Group 139"><path id="Path_103" data-name="Path 103" class="cls-1" d="M220.07,173.61a27.14,27.14,0,0,0-3.09-9.05c-.75,3.34-1.71,7.42-3.49,10.63" transform="translate(-101.25 -113.22)"/><path id="Path_104" data-name="Path 104" class="cls-1" d="M209,200c8.62-6.76,12.8-16.55,11.17-25.94l-6.92,1.67c-3,5.45-8.44,10.87-19.32,16.73" transform="translate(-101.25 -113.22)"/><path id="Path_105" data-name="Path 105" class="cls-1" d="M182.85,213.22c10.56-4.05,20.92-8.55,25.49-12.73l-15-7.56c-2.12,1.14-4.45,2.3-7,3.48A132.44,132.44,0,0,0,172.23,204" transform="translate(-101.25 -113.22)"/><path id="Path_106" data-name="Path 106" class="cls-1" d="M150.07,227.38c5-4.69,18.38-8.47,32.06-13.77l-10.46-9.21c-19.53,11.09-21.6,23-21.6,23" transform="translate(-101.25 -113.22)"/><path id="Path_107" data-name="Path 107" class="cls-1" d="M204.82,183.62c8-7,9.8-12.74,11.58-19.07,0,0-3.55,2.55-12.45,6.13" transform="translate(-101.25 -113.22)"/><path id="Path_108" data-name="Path 108" class="cls-1" d="M157.71,192.59c-16.93,13.61-8,34.56-8,34.56s.84-8.76,11-17.18" transform="translate(-101.25 -113.22)"/><path id="Path_109" data-name="Path 109" class="cls-1" d="M181.8,196.85c1.46-.73,2.1-1.14,3.71-1.89A90.64,90.64,0,0,0,204.16,184l-.85-13.08c-7.4,3.3-15,5.79-22.21,9.1" transform="translate(-101.25 -113.22)"/><path id="Path_110" data-name="Path 110" class="cls-1" d="M161.46,209.39c4.15-3.66,11.26-8,19.64-12.23l-.79-16.77c-3.68,1.53-8.5,3.94-10.77,5-4.45,2.15-8.31,4.25-11,6.7" transform="translate(-101.25 -113.22)"/></g><path class="cls-2" d="M210.6,259.25a71.54,71.54,0,0,1-81.72-113.62l.89,16.15,9-.49-1.62-29.59-30.87-3.59-1,8.94,17.44,2a80.56,80.56,0,0,0,91.56,128.41Z" transform="translate(-101.25 -113.22)"/><path class="cls-3" d="M261.53,205A80.54,80.54,0,0,0,139.69,125.1l4.72,7.67a71.53,71.53,0,0,1,83.2,115.92L229,232.31l-9-.77-2.51,29.53,30.07,7.86,2.27-8.71-16.77-4.39A79.89,79.89,0,0,0,261.53,205Z" transform="translate(-101.25 -113.22)"/></svg>