<svg id="Layer_1" data-name="Layer 1" xmlns="http://www.w3.org/2000/svg" 
width="200"
height="200"
xmlns:xlink="http://www.w3.org/1999/xlink" viewBox="0 0 122.22 165.25"><defs><style>.cls-1{fill:url(#linear-gradient);}.cls-2{fill:url(#linear-gradient-2);}.cls-3{fill:url(#linear-gradient-3);}.cls-4{fill:url(#linear-gradient-4);}.cls-5{fill:url(#linear-gradient-5);}.cls-6{fill:url(#linear-gradient-6);}.cls-7{fill:url(#linear-gradient-7);}</style><linearGradient id="linear-gradient" x1="247.99" y1="165.64" x2="103.42" y2="249.11" gradientUnits="userSpaceOnUse"><stop offset="0" stop-color="#d0e9d6"/><stop offset="0.1" stop-color="#bae1c7"/><stop offset="0.28" stop-color="#96d4ad"/><stop offset="0.46" stop-color="#7aca99"/><stop offset="0.64" stop-color="#66c38a"/><stop offset="0.82" stop-color="#5abe82"/><stop offset="1" stop-color="#56bd7f"/></linearGradient><linearGradient id="linear-gradient-2" x1="77.49" y1="42.33" x2="26.21" y2="71.94" xlink:href="#linear-gradient"/><linearGradient id="linear-gradient-3" x1="77.49" y1="54.31" x2="26.21" y2="83.92" xlink:href="#linear-gradient"/><linearGradient id="linear-gradient-4" x1="59.29" y1="71.66" x2="23.61" y2="92.26" xlink:href="#linear-gradient"/><linearGradient id="linear-gradient-5" x1="77.49" y1="92.68" x2="26.21" y2="122.29" xlink:href="#linear-gradient"/><linearGradient id="linear-gradient-6" x1="77.49" y1="104.66" x2="26.21" y2="134.26" xlink:href="#linear-gradient"/><linearGradient id="linear-gradient-7" x1="59.29" y1="122" x2="23.61" y2="142.61" xlink:href="#linear-gradient"/></defs><path class="cls-1" d="M240.16,152.47l-30.3-29.06-.26-.2a5.58,5.58,0,0,0-.48-.37,12.38,12.38,0,0,0-.86-.45c-.16-.06-.32-.1-.48-.15l-.45-.12a3.93,3.93,0,0,0-.59-.06c-.11,0-.22,0-.34,0H133.54a14.14,14.14,0,0,0-14.06,14.08V273.2a14.14,14.14,0,0,0,14.08,14.07H227.3a14.14,14.14,0,0,0,14.07-14.07l.32-116.14c0-.16,0-.31,0-.47A5,5,0,0,0,240.16,152.47ZM210.21,137.6l16.29,15.63H214.3a4.11,4.11,0,0,1-4.09-4.08Zm17.08,139.67H133.57a4.11,4.11,0,0,1-4.09-4.08V136.12a4.12,4.12,0,0,1,4.08-4.1h66.65v17.14a14.15,14.15,0,0,0,14.08,14.07h17.39l-.31,109.94A4.11,4.11,0,0,1,227.29,277.27Z" transform="translate(-119.48 -122.02)"/><rect class="cls-2" x="19.97" y="53.14" width="63.76" height="8"/><rect class="cls-3" x="19.97" y="65.12" width="63.76" height="8"/><rect class="cls-4" x="19.97" y="77.96" width="42.96" height="8"/><rect class="cls-5" x="19.97" y="103.48" width="63.76" height="8"/><rect class="cls-6" x="19.97" y="115.46" width="63.76" height="8"/><rect class="cls-7" x="19.97" y="128.31" width="42.96" height="8"/></svg>