<?xml version="1.0" encoding="utf-8"?>
<!-- Generator: Adobe Illustrator 25.4.1, SVG Export Plug-In . SVG Version: 6.00 Build 0)  -->
<svg version="1.1" id="Layer_1" xmlns="http://www.w3.org/2000/svg" xmlns:xlink="http://www.w3.org/1999/xlink" x="0px" y="0px"
	 viewBox="0 0 100 100" style="enable-background:new 0 0 100 100;" xml:space="preserve">
<style type="text/css">
	.st0{opacity:0.14;}
	.st1{opacity:0.8;}
	.st2{fill:#4CBBA3;}
	.st3{opacity:0.6;}
	.st4{fill:#72C3B1;}
	.st5{opacity:0.4;fill:#91CFC6;enable-background:new    ;}
	.st6{opacity:0.38;fill:#91CFC6;enable-background:new    ;}
</style>
<g id="Group_177" class="st0">
	<g id="Group_170" class="st1">
		<path id="Path_132" class="st2" d="M58.3,55.2C44.5,51,29.9,45.6,36.4,29.9C42.1,34,56.3,37.4,64,42c10.9,5.9,6.2,17.9,6.2,17.9
			S69.7,59,58.3,55.2z"/>
		<path id="Path_133" class="st2" d="M92,85c-13.8-4.1-28.4-9.5-21.8-25.2c5.7,4.1,19.9,7.5,27.6,12c10.9,6,6.2,17.9,6.2,17.9
			S103.4,88.8,92,85z"/>
		<path id="Path_134" class="st2" d="M24.5,25.2C10.7,21.1-3.9,15.7,2.7,0c5.7,4.1,19.9,7.5,27.6,12c10.9,6,6.2,17.9,6.2,17.9
			S35.9,29.1,24.5,25.2z"/>
	</g>
	<g id="Group_171" class="st3">
		<path id="Path_135" class="st4" d="M19.1,45.4C7.9,42.1-4,37.6,1.3,24.9C6,28.2,17.5,31,23.8,34.7c8.9,4.8,5,14.6,5,14.6
			S28.4,48.5,19.1,45.4z"/>
		<path id="Path_136" class="st4" d="M46.7,71.9c-11.2-3.4-23.1-7.8-17.8-20.6c4.6,3.3,16.2,6.1,22.5,9.8c8.9,4.9,5,14.6,5,14.6
			S56,75,46.7,71.9z"/>
	</g>
	<g id="Group_172" class="st3">
		<path id="Path_137" class="st4" d="M65.8,30.1C54.6,26.7,42.7,22.3,48,9.5c4.6,3.3,16.2,6.1,22.5,9.8c8.9,4.8,5,14.6,5,14.6
			S75.1,33.2,65.8,30.1z"/>
		<path id="Path_138" class="st4" d="M93.4,56.6C82.2,53.2,70.3,48.8,75.7,36c4.6,3.3,16.2,6.1,22.5,9.8c8.9,4.9,5,14.6,5,14.6
			S102.8,59.7,93.4,56.6z"/>
	</g>
	<path id="Path_139" class="st5" d="M15.8,58.3C9.4,56.4,2.6,53.8,5.7,46.5c2.7,1.9,9.2,3.5,12.8,5.6c5.1,2.8,2.9,8.3,2.9,8.3
		S21.2,60.1,15.8,58.3z"/>
	<path id="Path_140" class="st6" d="M92.7,37.3c-6.4-1.9-13.2-4.4-10.2-11.7c2.7,1.9,9.2,3.5,12.8,5.6c5.1,2.8,2.9,8.3,2.9,8.3
		S98,39.1,92.7,37.3z"/>
</g>
</svg>
