<svg id="Layer_1" data-name="Layer 1" xmlns="http://www.w3.org/2000/svg" xmlns:xlink="http://www.w3.org/1999/xlink" 
width="200"
height="200"
viewBox="0 0 173.27 108.09"><defs><style>.cls-1{fill:#56bd7f;}.cls-2{fill:url(#linear-gradient);}.cls-3{fill:#fff;}</style><linearGradient id="linear-gradient" x1="307.47" y1="54.7" x2="136.07" y2="169.79" gradientUnits="userSpaceOnUse"><stop offset="0.08" stop-color="#e1f1e5"/><stop offset="0.96" stop-color="#56bd7f"/></linearGradient></defs><g id="Group_102" data-name="Group 102"><g id="Group_96" data-name="Group 96"><path class="cls-1" d="M261.15,200.23H92.87V97.14a5,5,0,1,1,10,0v93.09H261.15a5,5,0,0,1,0,10Z" transform="translate(-92.87 -92.14)"/><path class="cls-2" d="M99.66,198.38a5,5,0,0,1-3.73-8.33L126,156.35,172.26,152,190.63,117l56.21-23.85a5,5,0,1,1,3.91,9.2l-52.93,22.46-19.23,36.58-47.71,4.5-27.49,30.78A5,5,0,0,1,99.66,198.38Z" transform="translate(-92.87 -92.14)"/><circle id="Ellipse_24" data-name="Ellipse 24" class="cls-3" cx="102.98" cy="29.15" r="8.5"/><path class="cls-1" d="M195.85,132.79a11.5,11.5,0,1,1,11.5-11.5A11.51,11.51,0,0,1,195.85,132.79Zm0-17a5.5,5.5,0,1,0,5.5,5.49A5.49,5.49,0,0,0,195.85,115.8Z" transform="translate(-92.87 -92.14)"/><circle id="Ellipse_25" data-name="Ellipse 25" class="cls-3" cx="35.78" cy="70.42" r="8.5"/><path class="cls-1" d="M128.66,174.06a11.5,11.5,0,1,1,11.49-11.5A11.51,11.51,0,0,1,128.66,174.06Zm0-17a5.5,5.5,0,1,0,5.49,5.5A5.5,5.5,0,0,0,128.66,157.06Z" transform="translate(-92.87 -92.14)"/><circle id="Ellipse_26" data-name="Ellipse 26" class="cls-3" cx="82.75" cy="63.82" r="8.5"/><path class="cls-1" d="M175.62,167.45A11.5,11.5,0,1,1,187.12,156,11.5,11.5,0,0,1,175.62,167.45Zm0-17a5.5,5.5,0,1,0,5.5,5.5A5.5,5.5,0,0,0,175.62,150.46Z" transform="translate(-92.87 -92.14)"/></g></g></svg>