<svg xmlns="http://www.w3.org/2000/svg"
 width="603.932" height="527.22" 
 viewBox="0 0 603.932 527.22">
 <defs><style>.a{opacity:0.14;}.b{opacity:0.8;}.c{fill:#4cbba3;}.d{opacity:0.6;}.e{fill:#72c3b1;}.f,.g{fill:#91d0c7;}.f{opacity:0.4;}.g{opacity:0.38;}</style></defs><g class="a" transform="translate(-133.782 -502.771) rotate(2)"><g class="b" transform="translate(169.396 484.08)"><path class="c" d="M196.307,681S166.9,613.648,228.167,577.411c43.3-27.607,123.83-49.829,155.653-74.455,40.727,88.518-42.028,122.491-119.916,148.853C199.24,675.936,196.307,681,196.307,681Z" transform="translate(-1.974 -324.921)"/><path class="c" d="M176.451,699.806s-29.408-67.352,31.861-103.6c43.3-27.607,123.83-49.829,155.644-74.445,40.736,88.517-42.019,122.481-119.907,148.853C179.384,694.741,176.451,699.806,176.451,699.806Z" transform="translate(-169.396 -166.352)"/><path class="c" d="M216.17,662.115s-29.408-67.352,31.861-103.589c43.3-27.607,123.83-49.828,155.653-74.445,40.726,88.508-42.019,122.482-119.907,148.844C219.1,657.05,216.17,662.115,216.17,662.115Z" transform="translate(165.507 -484.08)"/></g><g class="d" transform="translate(439.885 626.095)"><path class="e" d="M220.028,644.227s-23.966-54.884,25.966-84.415c35.284-22.5,100.911-40.613,126.839-60.675,33.19,72.134-34.238,99.817-97.714,121.3C222.423,640.1,220.028,644.227,220.028,644.227Z" transform="translate(-61.444 -499.137)"/><path class="e" d="M203.825,660.906s-23.966-54.884,25.956-84.424c35.294-22.495,100.92-40.6,126.848-60.665,33.191,72.134-34.247,99.817-97.723,121.3C206.211,656.784,203.825,660.906,203.825,660.906Z" transform="translate(-198.074 -358.494)"/></g><g class="d" transform="translate(169.396 547.434)"><path class="e" d="M191.35,635.9S167.383,581,217.315,551.472c35.284-22.5,100.911-40.6,126.839-60.675,33.19,72.134-34.237,99.817-97.714,121.3C193.736,631.765,191.35,635.9,191.35,635.9Z" transform="translate(-32.763 -490.797)"/><path class="e" d="M175.15,652.567s-23.976-54.884,25.956-84.424c35.294-22.495,100.911-40.6,126.849-60.666,33.191,72.135-34.247,99.817-97.723,121.3C177.536,648.445,175.15,652.567,175.15,652.567Z" transform="translate(-169.396 -350.154)"/></g><path class="f" d="M222.581,595.206S208.9,563.883,237.4,547.019c20.146-12.837,57.6-23.174,72.408-34.624,18.939,41.17-19.552,56.968-55.78,69.239C223.949,592.858,222.581,595.206,222.581,595.206Z" transform="translate(420.783 238.747)"/><path class="g" d="M175.475,584.1s-13.686-31.332,14.817-48.187c20.137-12.847,57.6-23.183,72.4-34.634,18.948,41.18-19.543,56.978-55.78,69.239C176.833,581.747,175.475,584.1,175.475,584.1Z" transform="translate(23.565 145.061)"/></g></svg>