<?xml version="1.0" encoding="utf-8"?>
<!-- Generator: Adobe Illustrator 25.4.1, SVG Export Plug-In . SVG Version: 6.00 Build 0)  -->
<svg version="1.1" id="Layer_1" xmlns="http://www.w3.org/2000/svg" xmlns:xlink="http://www.w3.org/1999/xlink" x="0px" y="0px"
	 viewBox="0 0 140.1 140.1" style="enable-background:new 0 0 140.1 140.1;" xml:space="preserve">
<style type="text/css">
	.st0{fill:url(#Path_24_00000056422870898240242350000015748340596060973744_);}
	.st1{fill:url(#Path_25_00000016785444179659939840000012822844153521537206_);}
	.st2{fill:url(#Ellipse_10_00000132070227395548121010000000125531425739911850_);}
	.st3{fill:#DFFAEB;}
	.st4{fill:url(#Ellipse_12_00000088121762174887355890000004230036856332102060_);}
	.st5{fill:#54BD7E;}
	.st6{opacity:0.84;}
	.st7{fill:url(#Path_27_00000089544497831471498490000000146663245628634040_);}
	.st8{fill:none;stroke:#54BD7E;stroke-width:1.5994;stroke-linecap:round;stroke-miterlimit:9.9961;}
	.st9{fill:none;stroke:#54BD7E;stroke-width:1.6;stroke-miterlimit:10;}
</style>
<g id="Group_59" transform="translate(-1167 -454)">
	<g id="Group_43" transform="translate(1188.41 485.98)">
		<g id="Group_41" transform="translate(0 32.556)">
			<g id="Group_40" transform="translate(0)">
				<g id="Group_37">
					
						<linearGradient id="Path_24_00000134239668934255780490000008983137348577724071_" gradientUnits="userSpaceOnUse" x1="-97.8925" y1="153.4779" x2="-99.1405" y2="153.4779" gradientTransform="matrix(88.1169 0 0 -31.7768 8768.8203 4892.9243)">
						<stop  offset="0" style="stop-color:#FFFFFF;stop-opacity:0.231"/>
						<stop  offset="1" style="stop-color:#54BD7E"/>
					</linearGradient>
					<path id="Path_24" style="fill:url(#Path_24_00000134239668934255780490000008983137348577724071_);" d="M88.1,25l-5.6,4V16.9
						c-3.2-3.7-7.1-6.6-11.4-8.7c-3.8-1.4-7.8-2.2-11.9-2.4c-4.2-0.3-10.4-0.2-15.6,1.8c-1.7,0.6-3.2,1.3-4.7,1.9
						c-4.9,2.1-9.5,4.2-20.4,5.8c-4.3,0.6-8.3,2.4-11.6,5.2c-0.8,0.7-1.2,1.7-1.2,2.7l-0.1,8.6L0,27.5v-7.9l0.6-0.8
						c4.4-5,10.4-8.3,17-9.2c10.2-1.5,14.4-3.4,19-5.4c1.5-0.7,3.1-1.3,4.9-2c6.2-2.4,13.2-2.5,18-2.1c5.4,0.4,10.7,1.5,13.9,2.9
						c5.6,2.6,10.4,6.4,14.2,11.2l0.5,0.7L88.1,25z"/>
					<g id="Group_36" transform="translate(23.126 26.855)">
						
							<linearGradient id="Path_25_00000029745838807322566760000000062320493593767584_" gradientUnits="userSpaceOnUse" x1="-122.5226" y1="115.072" x2="-120.6446" y2="115.072" gradientTransform="matrix(41.7671 0 0 -5.628 5080.7378 650.4401)">
							<stop  offset="0" style="stop-color:#FFFFFF;stop-opacity:0"/>
							<stop  offset="1" style="stop-color:#54BD7E"/>
						</linearGradient>
						<path id="Path_25" style="fill:url(#Path_25_00000029745838807322566760000000062320493593767584_);" d="M40.1,5.6H1.8L0,0
							h41.8L40.1,5.6z"/>
					</g>
				</g>
				<g id="Group_38" transform="translate(6.385 21.132)">
					
						<linearGradient id="Ellipse_10_00000178177264580055364640000016585538424432370311_" gradientUnits="userSpaceOnUse" x1="-101.2692" y1="128.3698" x2="-101.2512" y2="129.8248" gradientTransform="matrix(15.664 0 0 -15.664 1593.8374 2040.8402)">
						<stop  offset="0" style="stop-color:#DBEAC4"/>
						<stop  offset="0.23" style="stop-color:#FFFFFF;stop-opacity:0"/>
						<stop  offset="1" style="stop-color:#54BD7E"/>
					</linearGradient>
					
						<circle id="Ellipse_10" style="fill:url(#Ellipse_10_00000178177264580055364640000016585538424432370311_);" cx="7.8" cy="7.8" r="7.8"/>
					<circle id="Ellipse_11" class="st3" cx="7.8" cy="7.8" r="3.4"/>
				</g>
				<g id="Group_39" transform="translate(66.02 21.132)">
					
						<linearGradient id="Ellipse_12_00000170260258037373316040000014135680442374584466_" gradientUnits="userSpaceOnUse" x1="-160.8866" y1="128.4576" x2="-160.8866" y2="130.1886" gradientTransform="matrix(15.664 0 0 -15.664 2527.96 2040.8402)">
						<stop  offset="0" style="stop-color:#FFFFFF;stop-opacity:0"/>
						<stop  offset="1" style="stop-color:#54BD7E"/>
					</linearGradient>
					
						<circle id="Ellipse_12" style="fill:url(#Ellipse_12_00000170260258037373316040000014135680442374584466_);" cx="7.8" cy="7.8" r="7.8"/>
					<circle id="Ellipse_13" class="st3" cx="7.8" cy="7.8" r="3.4"/>
				</g>
			</g>
			<path id="Path_26" class="st5" d="M51.8,8.1l-11.3,6.1c0,0,0,0,0,0c0,0,0,0,0,0l4.8,1.7c0,0,0,0,0,0c0,0,0,0,0,0l-5.4,7.8
				c0,0,0,0,0,0c0,0,0,0,0,0l12.3-7.2c0,0,0,0,0,0c0,0,0,0,0,0l-5-1.8c0,0,0,0,0,0c0,0,0,0,0,0L51.8,8.1C51.8,8.1,51.8,8.1,51.8,8.1
				C51.8,8.1,51.8,8.1,51.8,8.1z"/>
		</g>
		<g id="Group_42" transform="translate(41.816)" class="st6">
			
				<linearGradient id="Path_27_00000173844848118318825910000010926499697028576405_" gradientUnits="userSpaceOnUse" x1="-139.6245" y1="186.5697" x2="-139.6165" y2="185.9107" gradientTransform="matrix(37.5117 0 0 -35.09 5256.1431 6553.7046)">
				<stop  offset="0" style="stop-color:#54BD7E"/>
				<stop  offset="0.177" style="stop-color:#54BD7E"/>
				<stop  offset="0.482" style="stop-color:#54BD7E"/>
				<stop  offset="1" style="stop-color:#BFF5D5"/>
			</linearGradient>
			<path id="Path_27" style="fill:url(#Path_27_00000173844848118318825910000010926499697028576405_);" d="M1.4,34.3L1.5,6v0
				c0-1.2,0.4-2.3,1.3-3.2C3.6,2,4.8,1.5,6,1.4l0.5,0c2.4-0.1,4.5,1.7,4.6,4.1l0.5,16.4c0.2,3,2.6,5.3,5.6,5.3h0.1l0.3,0
				c1.7,0,3.4-0.7,4.6-2c1.1-1.2,1.7-2.7,1.7-4.3l-0.3-10.7c0-2.3,1.8-4.2,4-4.2l9.9,0.2l0-1.4l-9.9-0.2h0c-3,0.1-5.4,2.6-5.4,5.7
				l0.3,10.7c0,1.2-0.4,2.4-1.3,3.3c-0.9,1-2.2,1.5-3.6,1.6l-0.3,0c-2.3,0.1-4.2-1.6-4.3-3.9L12.5,5.5C12.3,2.3,9.6-0.2,6.4,0L5.9,0
				c-1.6,0-3.1,0.7-4.2,1.8C0.6,3,0,4.5,0.1,6L0,35.1L1.4,34.3z"/>
			<line id="Line_5" class="st8" x1="48.7" y1="3.7" x2="45.3" y2="3.7"/>
			<line id="Line_6" class="st8" x1="48.7" y1="7.5" x2="45.3" y2="7.5"/>
			<path id="Rectangle_31" class="st9" d="M44.2,9h-3.5c-1.8,0-3.3-1.5-3.3-3.3l0,0c0-2.1,1.7-3.8,3.8-3.8h2.9
				c0.4,0,0.7,0.3,0.7,0.7v5.8C44.9,8.7,44.6,9,44.2,9z"/>
		</g>
	</g>
</g>
</svg>
