<?xml version="1.0" encoding="utf-8"?>
<!-- Generator: Adobe Illustrator 25.4.1, SVG Export Plug-In . SVG Version: 6.00 Build 0)  -->
<svg version="1.1" id="Layer_1" xmlns="http://www.w3.org/2000/svg" xmlns:xlink="http://www.w3.org/1999/xlink" x="0px" y="0px"
	 viewBox="0 0 148 148" style="enable-background:new 0 0 148 148;" xml:space="preserve">
<style type="text/css">
	.st0{fill:#54BD7E;}
	.st1{fill:url(#Path_31_00000183216502986771760480000012908757422811153036_);}
	.st2{fill:url(#Path_31-2_00000085251747884160959680000015878561235534671007_);}
	.st3{fill:url(#Path_31-3_00000006694625647545696660000010850759013817924757_);}
</style>
<g id="Group_182" transform="translate(-1963 -1204)">
	<g id="Group_163" transform="translate(693.729 401.505)">
		<g id="Group_49" transform="matrix(-0.469, 0.883, -0.883, -0.469, 1366.856, 852.384)">
			<path id="Path_30" class="st0" d="M23.1,14.2L16,0.1L0.5,0l4.7,2.9l-4.6,7.3c-0.7,1.2-0.8,2.7-0.1,3.9l8.2,15.4
				c-0.2-1.2,0.1-2.5,0.7-3.6c1-1.9,9.2-14.7,9.2-14.7L23.1,14.2z"/>
			
				<linearGradient id="Path_31_00000107551937844210173580000015430320445997012665_" gradientUnits="userSpaceOnUse" x1="240.3135" y1="66.3166" x2="241.4275" y2="66.6296" gradientTransform="matrix(-9.8697 -14.3329 -18.582 7.6128 3611.0327 2965.1147)">
				<stop  offset="0" style="stop-color:#54BD7E"/>
				<stop  offset="1" style="stop-color:#DFFAEB;stop-opacity:0.969"/>
			</linearGradient>
			<path id="Path_31" style="fill:url(#Path_31_00000107551937844210173580000015430320445997012665_);" d="M31.2,21.6l-0.7,15.9
				l-13-0.5c-2.5-0.3-4.7-1.6-6.1-3.7C9,29.5,11,26.8,11,26.8l3.5-5.5L31.2,21.6z"/>
		</g>
		<g id="Group_60" transform="translate(1351.619 910.215) rotate(-120)">
			<path id="Path_30-2" class="st0" d="M23.1,14.2L16,0.1L0.5,0l4.7,2.9l-4.6,7.3c-0.7,1.2-0.8,2.7-0.1,3.9l8.2,15.4
				c-0.2-1.2,0.1-2.5,0.7-3.6c1-1.9,9.2-14.7,9.2-14.7L23.1,14.2z"/>
			
				<linearGradient id="Path_31-2_00000030475697869751956230000016841996385905108358_" gradientUnits="userSpaceOnUse" x1="-18.6865" y1="-198.2799" x2="-17.5725" y2="-197.9669" gradientTransform="matrix(-10.5221 14.0573 18.2248 8.116 3423.8975 1897.5149)">
				<stop  offset="0" style="stop-color:#54BD7E"/>
				<stop  offset="1" style="stop-color:#DFFAEB;stop-opacity:0.969"/>
			</linearGradient>
			<path id="Path_31-2" style="fill:url(#Path_31-2_00000030475697869751956230000016841996385905108358_);" d="M31.2,21.6
				l-0.7,15.9l-13-0.5c-2.5-0.3-4.7-1.6-6.1-3.7C9,29.5,11,26.8,11,26.8l3.5-5.5L31.2,21.6z"/>
		</g>
		<g id="Group_61" transform="translate(1308.438 869.612)">
			<path id="Path_30-3" class="st0" d="M23.1,14.2L16,0.1L0.5,0l4.7,2.9l-4.6,7.3c-0.7,1.2-0.8,2.7-0.1,3.9l8.2,15.4
				c-0.2-1.2,0.1-2.5,0.7-3.6c1-1.9,9.2-14.7,9.2-14.7L23.1,14.2z"/>
			
				<linearGradient id="Path_31-3_00000064313634978900112690000004911584417792968357_" gradientUnits="userSpaceOnUse" x1="-110.7587" y1="152.9967" x2="-109.6447" y2="152.6837" gradientTransform="matrix(21.0442 0 0 -16.232 2337.7361 2509.0339)">
				<stop  offset="0" style="stop-color:#54BD7E"/>
				<stop  offset="1" style="stop-color:#DFFAEB;stop-opacity:0.969"/>
			</linearGradient>
			<path id="Path_31-3" style="fill:url(#Path_31-3_00000064313634978900112690000004911584417792968357_);" d="M31.2,21.6
				l-0.7,15.9l-13-0.5c-2.5-0.3-4.7-1.6-6.1-3.7C9,29.5,11,26.8,11,26.8l3.5-5.5L31.2,21.6z"/>
		</g>
	</g>
</g>
</svg>
