<?xml version="1.0" encoding="utf-8"?>
<!-- Generator: Adobe Illustrator 25.4.1, SVG Export Plug-In . SVG Version: 6.00 Build 0)  -->
<svg version="1.1" id="Layer_1" xmlns="http://www.w3.org/2000/svg" xmlns:xlink="http://www.w3.org/1999/xlink" x="0px" y="0px"
	 viewBox="0 0 215 215" style="enable-background:new 0 0 215 215;" xml:space="preserve">
<style type="text/css">
	.st0{fill:#FFFFFF;}
	.st1{fill:url(#Path_31_00000007413678230316167210000010147984333392945820_);}
	.st2{fill:url(#Path_31-2_00000035489167550668939300000007149784422557607071_);}
	.st3{fill:url(#Path_31-3_00000067212231160972743280000015504810073964824747_);}
</style>
<g id="Group_168" transform="translate(0.461 0.017)">
	<g id="Group_163" transform="translate(57.038 46.466)">
		<g id="Group_49" transform="matrix(-0.469, 0.883, -0.883, -0.469, 85.07, 25.644)">
			<path id="Path_30" class="st0" d="M33.6,20.7L23.4,0.2L0.8,0l6.8,4.3L0.9,15c-1.1,1.7-1.2,3.9-0.2,5.7l11.9,22.5
				c-0.3-1.8,0.1-3.7,1-5.2C15.1,35.1,27,16.6,27,16.6L33.6,20.7z"/>
			
				<linearGradient id="Path_31_00000140695887929705037960000007686644091407271344_" gradientUnits="userSpaceOnUse" x1="251.807" y1="73.6048" x2="250.786" y2="73.7578" gradientTransform="matrix(-14.3729 -20.8724 -27.0602 11.0862 5653.7031 4481.4551)">
				<stop  offset="0" style="stop-color:#54BD7E"/>
				<stop  offset="1" style="stop-color:#DFFAEB;stop-opacity:0.969"/>
			</linearGradient>
			<path id="Path_31" style="fill:url(#Path_31_00000140695887929705037960000007686644091407271344_);" d="M45.5,31.5l-1.1,23.1
				L25.5,54c-3.6-0.4-6.9-2.3-9-5.4C13.1,43,16,39.1,16,39.1l5.1-8.1L45.5,31.5z"/>
		</g>
		<g id="Group_60" transform="translate(62.882 109.86) rotate(-120)">
			<path id="Path_30-2" class="st0" d="M33.6,20.7L23.4,0.2L0.8,0l6.8,4.3L0.9,15c-1.1,1.7-1.2,3.9-0.2,5.7l11.9,22.5
				c-0.3-1.8,0.1-3.7,1-5.2C15.1,35.1,27,16.6,27,16.6L33.6,20.7z"/>
			
				<linearGradient id="Path_31-2_00000117668241172658712830000011003588069271964583_" gradientUnits="userSpaceOnUse" x1="-5.3956" y1="-191.5926" x2="-6.3286" y2="-191.6996" gradientTransform="matrix(-15.3229 20.4711 26.54 11.819 5048.5024 2418.582)">
				<stop  offset="0" style="stop-color:#54BD7E"/>
				<stop  offset="1" style="stop-color:#DFFAEB;stop-opacity:0.969"/>
			</linearGradient>
			<path id="Path_31-2" style="fill:url(#Path_31-2_00000117668241172658712830000011003588069271964583_);" d="M45.5,31.5
				l-1.1,23.1L25.5,54c-3.6-0.4-6.9-2.3-9-5.4C13.1,43,16,39.1,16,39.1l5.1-8.1L45.5,31.5z"/>
		</g>
		<g id="Group_61" transform="translate(0 50.732)">
			<path id="Path_30-3" class="st0" d="M33.6,20.7L23.4,0.2L0.8,0l6.8,4.3L0.9,15c-1.1,1.7-1.2,3.9-0.2,5.7l11.9,22.5
				c-0.3-1.8,0.1-3.7,1-5.2C15.1,35.1,27,16.6,27,16.6L33.6,20.7z"/>
			
				<linearGradient id="Path_31-3_00000049931295147243781990000013073764870029528197_" gradientUnits="userSpaceOnUse" x1="-97.3273" y1="158.4994" x2="-98.4523" y2="158.6024" gradientTransform="matrix(30.6458 0 0 -23.638 3022.0596 3789.6208)">
				<stop  offset="0" style="stop-color:#54BD7E"/>
				<stop  offset="1" style="stop-color:#DFFAEB;stop-opacity:0.969"/>
			</linearGradient>
			<path id="Path_31-3" style="fill:url(#Path_31-3_00000049931295147243781990000013073764870029528197_);" d="M45.5,31.5
				l-1.1,23.1L25.5,54c-3.6-0.4-6.9-2.3-9-5.4C13.1,43,16,39.1,16,39.1l5.1-8.1L45.5,31.5z"/>
		</g>
	</g>
</g>
</svg>
