<?xml version="1.0" encoding="utf-8"?>
<!-- Generator: Adobe Illustrator 25.4.1, SVG Export Plug-In . SVG Version: 6.00 Build 0)  -->
<svg version="1.1" id="Layer_1" xmlns="http://www.w3.org/2000/svg" xmlns:xlink="http://www.w3.org/1999/xlink" x="0px" y="0px"
	 viewBox="0 0 215 215" style="enable-background:new 0 0 215 215;" xml:space="preserve">
<style type="text/css">
	.st0{fill:url(#Path_24_00000070084171752866028830000002915304855547682989_);}
	.st1{fill:url(#Path_25_00000049214548558898840930000004466544507303690650_);}
	.st2{fill:url(#Ellipse_10_00000012438726428814665700000007964925751491724441_);}
	.st3{fill:#54BD7E;}
	.st4{fill:url(#Ellipse_12_00000142882378263432136040000005156525203744314001_);}
	.st5{fill:#FFFFFF;}
	.st6{opacity:0.84;}
	.st7{fill:url(#Path_27_00000181766294735744232770000000242684982750576274_);}
	.st8{fill:none;stroke:#FFFFFF;stroke-width:2.3991;stroke-linecap:round;stroke-miterlimit:9.9961;}
	.st9{fill:none;stroke:#FFFFFF;stroke-width:2.4;stroke-miterlimit:10;}
</style>
<g id="Group_59" transform="translate(-1167 -454)">
	<g id="Group_43" transform="translate(-766.532 1099.971)">
		<g id="Group_41" transform="translate(1966.388 -546.936)">
			<g id="Group_40" transform="translate(0)">
				<g id="Group_37">
					
						<linearGradient id="Path_24_00000047036178866516797830000016033763935288133506_" gradientUnits="userSpaceOnUse" x1="-73.3165" y1="157.8424" x2="-74.1305" y2="157.5034" gradientTransform="matrix(135.214 0 0 -48.766 10079.5703 7710.0771)">
						<stop  offset="0" style="stop-color:#FFFFFF;stop-opacity:0.231"/>
						<stop  offset="8.299999e-02" style="stop-color:#FFFFFF;stop-opacity:0.231"/>
						<stop  offset="1" style="stop-color:#FFFFFF"/>
					</linearGradient>
					<path id="Path_24" style="fill:url(#Path_24_00000047036178866516797830000016033763935288133506_);" d="M135.2,38.3l-8.6,6.2
						V25.9c-4.8-5.7-10.8-10.2-17.6-13.4c-3.2-1.4-10.1-3.1-18.3-3.7c-6.5-0.4-15.9-0.3-23.9,2.7c-2.6,1-4.9,2-7.1,3
						c-7.5,3.3-14.6,6.4-31.3,8.9c-6.6,0.9-12.7,3.7-17.8,8c-1.2,1-1.9,2.5-1.9,4.1L8.5,48.8L0,42.2V30.1L0.9,29
						c0.4-0.5,9-11.5,26.1-14.1c15.6-2.4,22.2-5.2,29.2-8.3c2.3-1,4.7-2.1,7.5-3.1C73.2-0.1,84-0.3,91.3,0.2
						c8.3,0.6,16.5,2.3,21.3,4.5c8.5,3.9,16,9.8,21.8,17.2l0.8,1.1V38.3z"/>
					<g id="Group_36" transform="translate(35.488 41.21)">
						
							<linearGradient id="Path_25_00000079463014051538795200000012034847573811090607_" gradientUnits="userSpaceOnUse" x1="-109.6887" y1="112.3922" x2="-108.6887" y2="112.3922" gradientTransform="matrix(64.094 0 0 -8.637 7030.3848 975.0494)">
							<stop  offset="0" style="stop-color:#FFFFFF;stop-opacity:0"/>
							<stop  offset="1" style="stop-color:#FFFFFF"/>
						</linearGradient>
						<path id="Path_25" style="fill:url(#Path_25_00000079463014051538795200000012034847573811090607_);" d="M61.6,8.6H2.8L0,0
							h64.1L61.6,8.6z"/>
					</g>
				</g>
				<g id="Group_38" transform="translate(9.797 32.429)">
					
						<linearGradient id="Ellipse_10_00000176013314116461839750000016412990477172393639_" gradientUnits="userSpaceOnUse" x1="-82.4262" y1="123.6279" x2="-82.3952" y2="124.6209" gradientTransform="matrix(24.036 0 0 -24.036 1992.7184 2999.4199)">
						<stop  offset="0" style="stop-color:#DBEAC4"/>
						<stop  offset="0" style="stop-color:#FFFFFF;stop-opacity:0"/>
						<stop  offset="1" style="stop-color:#FFFFFF"/>
					</linearGradient>
					
						<circle id="Ellipse_10" style="fill:url(#Ellipse_10_00000176013314116461839750000016412990477172393639_);" cx="12" cy="12" r="12"/>
					<circle id="Ellipse_11" class="st3" cx="12" cy="12" r="5.3"/>
				</g>
				<g id="Group_39" transform="translate(101.311 32.429)">
					
						<linearGradient id="Ellipse_12_00000108293936856150704050000009902686680997204905_" gradientUnits="userSpaceOnUse" x1="-174.1568" y1="123.6057" x2="-173.7518" y2="124.7717" gradientTransform="matrix(24.036 0 0 -24.036 4192.3486 2999.4199)">
						<stop  offset="0" style="stop-color:#FFFFFF;stop-opacity:0"/>
						<stop  offset="1" style="stop-color:#FFFFFF"/>
					</linearGradient>
					
						<circle id="Ellipse_12" style="fill:url(#Ellipse_12_00000108293936856150704050000009902686680997204905_);" cx="12" cy="12" r="12"/>
					<circle id="Ellipse_13" class="st3" cx="12" cy="12" r="5.3"/>
				</g>
			</g>
			<path id="Path_26" class="st5" d="M79.4,12.4l-17.4,9.4c0,0,0,0,0,0c0,0,0,0,0,0l7.4,2.7c0,0,0,0,0,0c0,0,0,0,0,0l-8.4,11.9
				c0,0,0,0,0,0c0,0,0,0,0,0l18.9-11.1c0,0,0,0,0,0c0,0,0,0,0,0l-7.7-2.8c0,0,0,0,0,0c0,0,0,0,0,0L79.4,12.4
				C79.5,12.5,79.5,12.4,79.4,12.4C79.5,12.4,79.5,12.4,79.4,12.4L79.4,12.4z"/>
		</g>
		<g id="Group_42" transform="translate(2030.558 -596.896)" class="st6">
			
				<linearGradient id="Path_27_00000183936766420615828540000015190600721999787676_" gradientUnits="userSpaceOnUse" x1="-137.8009" y1="207.9461" x2="-137.7929" y2="207.2871" gradientTransform="matrix(57.564 0 0 -53.8467 7960.8828 11207.9131)">
				<stop  offset="0" style="stop-color:#FFFFFF;stop-opacity:0.969"/>
				<stop  offset="0.177" style="stop-color:#F5F7F4"/>
				<stop  offset="0.475" style="stop-color:#FFFFFF"/>
				<stop  offset="1" style="stop-color:#FFFFFF;stop-opacity:0.341"/>
			</linearGradient>
			<path id="Path_27" style="fill:url(#Path_27_00000183936766420615828540000015190600721999787676_);" d="M2.2,52.7L2.3,9.3v0
				C2.2,7.4,2.9,5.7,4.2,4.4c1.3-1.3,3.1-2.1,5-2.2l0.8,0C13.6,2,16.8,4.8,17,8.5l0.8,25.2c0.2,4.6,4.1,8.2,8.7,8.1h0.2l0.5,0
				c2.6,0,5.2-1.1,7-3.1c1.7-1.8,2.6-4.2,2.6-6.6l-0.5-16.4c0-3.5,2.7-6.4,6.2-6.5l15.2,0.3l0-2.2L42.3,7h0c-4.7,0.2-8.4,4-8.3,8.7
				l0.5,16.4c0.1,1.9-0.6,3.7-2,5.1c-1.4,1.5-3.4,2.4-5.5,2.4l-0.5,0c-3.5,0.1-6.4-2.5-6.6-6L19.2,8.4C18.9,3.5,14.8-0.2,9.9,0
				L9.1,0C6.7,0.1,4.3,1.1,2.6,2.9C0.9,4.6,0,6.9,0.1,9.3L0,53.8L2.2,52.7z"/>
			<line id="Line_5" class="st8" x1="74.7" y1="5.6" x2="69.5" y2="5.7"/>
			<line id="Line_6" class="st8" x1="74.7" y1="11.5" x2="69.5" y2="11.5"/>
			<path id="Rectangle_31" class="st9" d="M67.8,13.9h-5.3c-2.8,0-5.1-2.3-5.1-5.1l0,0l0,0c0-3.3,2.6-5.9,5.9-5.9c0,0,0,0,0,0h4.5
				c0.6,0,1.1,0.5,1.1,1.1c0,0,0,0,0,0v8.9C68.9,13.4,68.4,13.9,67.8,13.9C67.8,13.9,67.8,13.9,67.8,13.9z"/>
		</g>
	</g>
</g>
</svg>
