<?xml version="1.0" encoding="utf-8"?>
<!-- Generator: Adobe Illustrator 25.4.1, SVG Export Plug-In . SVG Version: 6.00 Build 0)  -->
<svg version="1.1" id="Layer_1" xmlns="http://www.w3.org/2000/svg" xmlns:xlink="http://www.w3.org/1999/xlink" x="0px" y="0px"
	 viewBox="0 0 213 213" style="enable-background:new 0 0 213 213;" xml:space="preserve">
<style type="text/css">
	.st0{clip-path:url(#SVGID_00000060729988999004768820000004645021483630003844_);}
	.st1{fill:#FFFFFF;}
	.st2{fill:url(#Path_128_00000046325948276879529260000005750940947654833029_);}
	.st3{fill:#54BD7E;}
	.st4{fill:url(#Path_131_00000039848133868136285270000012674074250679527838_);}
</style>
<g id="Group_167" transform="translate(-0.018 -0.003)">
	<g>
		<defs>
			<circle id="SVGID_1_" cx="106.5" cy="106.5" r="106.5"/>
		</defs>
		<clipPath id="SVGID_00000114796659636666684020000006595932689337087388_">
			<use xlink:href="#SVGID_1_"  style="overflow:visible;"/>
		</clipPath>
		
			<g id="Mask_Group_17" transform="translate(0.076 0.061)" style="clip-path:url(#SVGID_00000114796659636666684020000006595932689337087388_);">
			<g id="Group_166" transform="translate(64.112 30.343)">
				<path id="Path_126" class="st1" d="M64.1,4.4l-7.8,52.7c-0.6,3.2,0.2,4.5,1.1,5.8c4.8,6.7,6.2,3.2,6.2,3.2l7-64.4
					C70.9-2,64.5,0.8,64,5.4"/>
				<g id="Group_165" transform="translate(56.655 72.595)">
					<path id="Path_127" class="st1" d="M6.7,0l19.1,1c1.1,0,2.1,0.6,2.6,1.5c0.7,1.3,1.2,2.7,1.2,4.2c0.1,1.7-0.2,3.4-1,4.9
						c-0.6,0.9-1.5,1.5-2.6,1.6l-18,1.1c0,0,3.2-2.2,2.8-7.6C10.4,1.2,6.7,0,6.7,0z"/>
					<ellipse id="Ellipse_45" class="st1" cx="4.8" cy="7.5" rx="4.8" ry="6.9"/>
				</g>
				
					<linearGradient id="Path_128_00000051341654554210293240000010365075903720343997_" gradientUnits="userSpaceOnUse" x1="-103.1746" y1="226.5254" x2="-103.1746" y2="225.8273" gradientTransform="matrix(12.302 0 0 -207.083 1341.0315 46972.6641)">
					<stop  offset="0" style="stop-color:#FCFDFE"/>
					<stop  offset="1" style="stop-color:#54BD7E"/>
				</linearGradient>
				<path id="Path_128" style="fill:url(#Path_128_00000051341654554210293240000010365075903720343997_);" d="M66,92.1L66,92.1
					l-0.3,202.3l4.9,3.5l7.4-5L76.8,90.9C72.3,94.4,66,92.1,66,92.1z"/>
				<path id="Path_129" class="st3" d="M76.4,93.5c-7-1.2-10.6-1.5-10.6-1.5c0.1,0,0,3.7,0,3.7l11.1,9.4c0-5.3,0.2-9.5,0.2-12.1"/>
				<path id="Path_130" class="st1" d="M6.5,124.4L48,98.6c2.6-1.5,3-2.8,3.4-4.3c1.8-7.3-1.4-6.2-1.4-6.2L0.8,121.5
					c-2.8,2,3,4.8,6.5,2.5"/>
				
					<linearGradient id="Path_131_00000109012548251142707080000001688273157329372556_" gradientUnits="userSpaceOnUse" x1="-106.3386" y1="225.7559" x2="-105.3386" y2="224.6769" gradientTransform="matrix(51.5392 0 0 -46.7658 5546.0869 10643.2002)">
					<stop  offset="0" style="stop-color:#FCFDFE"/>
					<stop  offset="1" style="stop-color:#54BD7E"/>
				</linearGradient>
				<path id="Path_131" style="fill:url(#Path_131_00000109012548251142707080000001688273157329372556_);" d="M115.9,128.5
					l-38.4-37c-2.3-2.3-3.8-2.5-5.4-2.4c-8.3,0-6.2,3.2-6.2,3.2l48.4,43.1c2.9,2.5,4.3-4.5,0.9-7.5"/>
			</g>
		</g>
	</g>
</g>
</svg>
